<svg width="100" height="100" viewBox="0 0 100 100" fill="none" xmlns="http://www.w3.org/2000/svg">
<mask id="mask0" mask-type="alpha" maskUnits="userSpaceOnUse" x="0" y="0" width="100" height="100">
<g clip-path="url(#clip0)">
<path d="M49.123 50.7015C48.597 50.7015 47.8946 50.8771 47.3686 50.8771H36.8423C36.3163 50.8771 35.6139 50.8771 35.0879 50.7015V56.1403H49.123V50.7015Z" fill="black"/>
<path d="M42.1051 59.6492H37.0176L41.2279 64.9123H42.9823L47.1927 59.6492H42.1051Z" fill="black"/>
<path d="M40.3511 68.421H43.8598V71.9298H40.3511V68.421Z" fill="black"/>
<path d="M21.7543 32.9821L26.3159 35.9649V36.8421C26.3159 42.6313 31.0531 47.3684 36.8422 47.3684H47.3685C53.1577 47.3684 57.8948 42.6313 57.8948 36.8421V35.6137L61.9296 34.2105C62.632 34.0349 63.158 33.3333 63.158 32.6318V28.0702C63.158 27.0174 62.4564 26.3158 61.4036 26.3158H54.0348C53.1577 29.123 50.1757 30.5262 47.3685 29.4733C45.7897 28.9474 44.7369 27.719 44.211 26.3158H39.9998C39.1226 29.123 36.1406 30.5262 33.3334 29.4733C31.7547 28.9474 30.7019 27.719 30.1759 26.3158H22.8071C21.7543 26.3158 21.0527 27.0174 21.0527 28.0702V31.4033C21.0527 32.1049 21.404 32.6318 21.7543 32.9821ZM38.5966 36.8421C38.5966 37.8949 39.2982 38.5965 40.351 38.5965H43.8598C44.9126 38.5965 45.6141 37.8949 45.6141 36.8421H49.1229C49.1229 39.8249 46.8425 42.1053 43.8598 42.1053H40.351C37.3682 42.1053 35.0878 39.8249 35.0878 36.8421H38.5966Z" fill="black"/>
<path d="M36.8423 24.5614C36.8423 25.5302 36.0567 26.3158 35.0879 26.3158C34.119 26.3158 33.3335 25.5302 33.3335 24.5614C33.3335 23.5925 34.119 22.807 35.0879 22.807C36.0567 22.807 36.8423 23.5925 36.8423 24.5614Z" fill="black"/>
<path d="M35.4391 9.47351L36.3163 8.42071L37.5438 8.94754C44.0354 11.0523 50.8773 12.2807 57.8949 12.2807C57.8949 5.43877 52.4561 0 45.6142 0H38.5966C31.7547 0 26.3159 5.43877 26.3159 12.2807V14.2107C30.0003 14.2107 33.3335 12.4563 35.4391 9.47351Z" fill="black"/>
<path d="M35.0877 19.2983C37.368 19.2983 39.298 20.7014 39.9996 22.8071H44.2108C45.088 19.9999 48.07 18.5967 50.8771 19.6495C52.4559 20.1755 53.5087 21.4039 54.0347 22.8071H57.8947V15.7895C50.8771 15.7895 44.0352 14.7367 37.368 12.632C34.7365 15.7895 30.7017 17.7195 26.4914 17.7195C26.3157 17.7195 26.3157 17.7195 26.1401 17.7195V22.8071H30.0001C30.8773 20.7014 32.8073 19.2983 35.0877 19.2983Z" fill="black"/>
<path d="M50.8774 24.5614C50.8774 25.5302 50.0919 26.3158 49.123 26.3158C48.1542 26.3158 47.3687 25.5302 47.3687 24.5614C47.3687 23.5925 48.1542 22.807 49.123 22.807C50.0919 22.807 50.8774 23.5925 50.8774 24.5614Z" fill="black"/>
<path d="M33.509 95.0881L36.8421 74.0355V68.4211C36.8421 67.5439 37.1934 66.8423 37.7193 66.1407L32.4562 59.6492H23.5086C15.4383 59.6492 8.77197 66.3155 8.77197 74.3858V100H21.0527V82.9822L17.8951 78.2458L20.8771 76.3158L24.7371 82.105V100H37.0178L35.0878 98.5969C33.8593 97.7197 33.3334 96.4913 33.509 95.0881Z" fill="black"/>
<path d="M60.7019 59.6492H51.7544L46.4912 66.1407C47.0172 66.8423 47.3684 67.5439 47.3684 68.4211V74.0355L50.7016 95.2629C50.8772 96.4913 50.3512 97.8944 49.2984 98.5969L47.3684 100H59.6491V81.9302L63.5091 76.1402L66.491 78.0702L63.1579 82.9822V100H75.4386V74.3858C75.4386 66.3155 68.7723 59.6492 60.7019 59.6492Z" fill="black"/>
<path d="M89.4737 7.01758H60.5264C61.0523 8.77196 61.4036 10.5264 61.4036 12.2807V22.8071C64.3864 22.8071 66.6667 25.0874 66.6667 28.0702H68.4211V43.8597H70.7015L75.9646 28.0702H89.4737C90.5265 28.0702 91.2281 27.3686 91.2281 26.3158V8.77196C91.2281 7.71916 90.5265 7.01758 89.4737 7.01758ZM70.1755 19.2983H64.9123V15.7895H70.1755V19.2983ZM78.9474 19.2983H73.6843V15.7895H78.9474V19.2983ZM87.7193 19.2983H82.4562V15.7895H87.7193V19.2983Z" fill="black"/>
<path d="M40.1751 75.4386L37.0176 95.7896L42.1051 99.474L47.1927 95.7896L44.0351 75.4386H40.1751Z" fill="black"/>
</g>
</mask>
<g mask="url(#mask0)">
<rect x="-15" y="-16" width="130" height="133" fill="#3A3A3A" fill-opacity="0.6"/>
</g>
<defs>
<clipPath id="clip0">
<rect width="100" height="100" fill="white"/>
</clipPath>
</defs>
</svg>
