<svg width="126" height="164" viewBox="0 0 126 164" fill="none" xmlns="http://www.w3.org/2000/svg">
<path d="M95.3718 40.1055C95.3718 62.0252 80.7915 79.6198 63.0028 79.6198C45.2132 79.6198 30.6328 62.0252 30.6328 40.1055C30.6328 29.0672 31.8454 19.1935 36.4729 12.0835C41.0681 5.023 49.1008 0.59082 63.0028 0.59082C76.9047 0.59082 84.9373 5.023 89.5322 12.0835C94.1594 19.1935 95.3718 29.0672 95.3718 40.1055Z" fill="black" stroke="black"/>
<path d="M81.114 83.8237C81.1435 83.7914 81.1706 83.7612 81.1954 83.7333C100.203 87.1964 110.797 91.6471 116.771 99.857C122.792 108.133 124.209 120.336 124.514 139.609C124.534 140.84 124.548 141.565 124.56 141.956C124.565 142.146 124.57 142.27 124.576 142.333C124.576 142.343 124.579 142.368 124.583 142.397C124.582 143.025 124.581 143.909 124.581 145.135C124.568 145.158 124.553 145.184 124.535 145.215C124.462 145.339 124.345 145.527 124.176 145.768C123.837 146.252 123.291 146.952 122.468 147.798C120.822 149.489 118.069 151.766 113.664 154.05C104.852 158.62 89.4168 163.227 63.0032 163.227C36.5892 163.227 21.1541 158.62 12.3422 154.05C7.93683 151.766 5.18381 149.489 3.53862 147.798C2.71574 146.952 2.16903 146.252 1.83082 145.768C1.66168 145.527 1.54461 145.339 1.47116 145.215C1.45323 145.184 1.4379 145.158 1.42505 145.135C1.42495 143.293 1.42278 142.142 1.42069 141.451C1.42359 141.438 1.42517 141.428 1.42582 141.424L1.42598 141.423C1.42876 141.407 1.43059 141.391 1.4318 141.38C1.43428 141.358 1.43628 141.332 1.438 141.306C1.44152 141.254 1.44514 141.181 1.44897 141.085C1.46431 140.7 1.48538 139.89 1.51406 138.36L1.51406 138.36C1.8643 119.597 3.37967 107.687 9.43369 99.588C15.4424 91.5497 26.0106 87.1584 44.81 83.7333C44.8349 83.7612 44.862 83.7914 44.8916 83.8237C45.073 84.0224 45.3436 84.3023 45.7067 84.6363C46.4328 85.3042 47.53 86.1887 49.0265 87.0712C52.0227 88.8382 56.6095 90.5912 63.0032 90.5912C69.3969 90.5912 73.9835 88.8382 76.9794 87.0712C78.4758 86.1887 79.5729 85.3041 80.2989 84.6363C80.662 84.3023 80.9325 84.0224 81.114 83.8237ZM125.072 142.258C125.067 142.186 125.062 142.048 125.056 141.821C124.932 141.826 124.831 141.878 124.766 141.93C124.694 141.988 124.656 142.051 124.642 142.078C124.624 142.11 124.613 142.137 124.608 142.152C124.597 142.183 124.592 142.208 124.59 142.217C124.588 142.229 124.586 142.238 124.585 142.243C124.585 142.244 124.585 142.245 124.585 142.246L125.072 142.258ZM1.39725 141.176C1.40078 141.186 1.40375 141.194 1.40623 141.203L0.942809 141.21C0.94697 141.131 0.951677 141.014 0.956986 140.852C1.09267 140.859 1.1943 140.92 1.25354 140.97C1.35522 141.057 1.39203 141.161 1.39683 141.175L1.39725 141.176Z" fill="black" stroke="black"/>
</svg>
