<svg width="100" height="100" viewBox="0 0 100 100" fill="none" xmlns="http://www.w3.org/2000/svg">
<g clip-path="url(#clip0)">
<path d="M100 29.0323C100 26.3648 97.829 24.1935 95.1615 24.1935C94.4748 24.1935 93.8227 24.3416 93.2313 24.5999L76.8565 7.05488C77.2054 6.38861 77.4196 5.64201 77.4196 4.83871C77.4196 2.17128 75.2483 0 72.5809 0C69.9135 0 67.7422 2.17128 67.7422 4.83871C67.7422 7.50614 69.9135 9.67742 72.5809 9.67742C73.2676 9.67742 73.9197 9.52936 74.5112 9.27104L90.8859 26.8161C90.537 27.4824 90.3228 28.229 90.3228 29.0323C90.3228 30.6176 91.1001 32.0163 92.2823 32.8999L82.0536 66.1503C79.4822 66.2598 77.4196 68.3696 77.4196 70.9677C77.4196 73.6352 79.5909 75.8064 82.2583 75.8064C82.5017 75.8064 82.7371 75.7694 82.971 75.734L91.6002 91.9111C90.8151 92.7727 90.3228 93.9067 90.3228 95.1613C90.3228 97.8287 92.4941 100 95.1615 100C97.829 100 100 97.8287 100 95.1613C100 92.4939 97.829 90.3226 95.1615 90.3226C94.9182 90.3226 94.6827 90.3596 94.4488 90.395L85.8196 74.218C86.6048 73.3564 87.097 72.2223 87.097 70.9677C87.097 69.3824 86.3197 67.9837 85.1376 67.1001L95.3663 33.8497C97.9377 33.7402 100 31.6304 100 29.0323ZM96.7744 29.0323C96.7744 29.9206 96.0515 30.6452 95.1615 30.6452C94.2716 30.6452 93.5486 29.9206 93.5486 29.0323C93.5486 28.1439 94.2716 27.4194 95.1615 27.4194C96.0515 27.4194 96.7744 28.1439 96.7744 29.0323ZM70.968 4.83871C70.968 3.95035 71.691 3.22581 72.5809 3.22581C73.4708 3.22581 74.1938 3.95035 74.1938 4.83871C74.1938 5.72707 73.4708 6.45161 72.5809 6.45161C71.691 6.45161 70.968 5.72707 70.968 4.83871ZM80.6454 70.9677C80.6454 70.0794 81.3684 69.3548 82.2583 69.3548C83.1482 69.3548 83.8712 70.0794 83.8712 70.9677C83.8712 71.8561 83.1482 72.5806 82.2583 72.5806C81.3684 72.5806 80.6454 71.8561 80.6454 70.9677ZM96.7744 95.1613C96.7744 96.0496 96.0515 96.7742 95.1615 96.7742C94.2716 96.7742 93.5486 96.0496 93.5486 95.1613C93.5486 94.2729 94.2716 93.5484 95.1615 93.5484C96.0515 93.5484 96.7744 94.2729 96.7744 95.1613Z" fill="black" fill-opacity="0.6"/>
<path d="M69.3542 50V38.6711C69.3542 36.5179 67.9689 34.6546 65.9055 34.0371L55.5201 30.9208C54.5813 32.1399 52.7652 33.8709 49.9994 33.8709C47.2335 33.8709 45.4174 32.1399 44.4786 30.9208L34.0932 34.0371C32.0298 34.6546 30.6445 36.5179 30.6445 38.6711V50H37.0961V38.7097H40.3219V50H59.6768V38.7097H62.9026V50H69.3542Z" fill="black" fill-opacity="0.6"/>
<path d="M42.3226 18.476C42.3982 18.724 42.455 18.9808 42.5526 19.2178L42.5817 19.2903C43.8143 22.1696 46.6739 24.1936 49.9981 24.1936V27.4194C48.879 27.4194 47.7945 27.2548 46.7723 26.95V28.5873C47.1724 29.2048 48.2836 30.6452 49.9981 30.6452C51.7126 30.6452 52.8238 29.2048 53.2239 28.5873V23.2627L54.0288 22.7965C55.8236 21.7585 57.0451 20.3031 57.6413 18.587C57.724 18.3326 57.8059 18.0775 57.8626 17.8176C57.8917 17.69 57.9177 17.5632 57.9398 17.434C58.013 17.0032 58.0626 16.5677 58.0626 16.1291V11.2903C58.0626 6.84384 54.4446 3.22583 49.9981 3.22583C45.5516 3.22583 41.9336 6.84384 41.9336 11.2903V16.1291C41.9336 16.6551 41.9919 17.1663 42.0887 17.6632C42.1431 17.9373 42.24 18.205 42.3226 18.476Z" fill="black" fill-opacity="0.6"/>
<path d="M75.342 55.0616C79.0553 51.7854 81.6164 47.3003 82.1456 42.3758C83.3876 30.7948 74.3048 20.9678 62.9712 20.9678H62.4356C61.6441 20.9678 60.8456 21.0324 60.0517 21.1308C59.2279 22.6712 58.0112 24.0195 56.4518 25.0835V27.8321L66.8341 30.9468C70.245 31.9706 72.5808 35.1098 72.5808 38.6711V53.2258H27.4196V38.6711C27.4196 35.1098 29.7554 31.9706 33.1663 30.9468L43.5486 27.8321V25.3907C41.9955 24.3062 40.7402 22.8343 39.892 21.1245C39.1163 21.0308 38.3374 20.9678 37.5648 20.9678H37.0292C25.6956 20.9678 16.6128 30.7948 17.8563 42.3758C18.3856 47.3003 20.9451 51.7838 24.66 55.0616L46.3436 74.1936H43.5486V77.4194H46.7744V80.6452H43.5486V83.871H46.7744V96.7742C46.7744 98.5564 48.218 100 50.0002 100C51.7824 100 53.226 98.5564 53.226 96.7742V83.871H56.4518V80.6452H53.226V77.4194H56.4518V74.1936H53.6568L75.342 55.0616Z" fill="black" fill-opacity="0.6"/>
<path d="M17.0292 75.734C17.2631 75.7694 17.4986 75.8064 17.7419 75.8064C20.4094 75.8064 22.5806 73.6352 22.5806 70.9677C22.5806 68.3696 20.5181 66.2598 17.9467 66.1503L7.71799 32.8999C8.90011 32.0163 9.67742 30.6176 9.67742 29.0323C9.67742 28.229 9.46321 27.4824 9.11432 26.8161L25.4891 9.26947C26.0821 9.52936 26.7326 9.67742 27.4194 9.67742C30.0868 9.67742 32.2581 7.50614 32.2581 4.83871C32.2581 2.17128 30.0868 0 27.4194 0C24.7519 0 22.5806 2.17128 22.5806 4.83871C22.5806 5.64201 22.7949 6.38861 23.1437 7.05488L6.769 24.5999C6.17755 24.3416 5.52545 24.1935 4.83871 24.1935C2.17128 24.1935 0 26.3648 0 29.0323C0 31.6304 2.06259 33.7402 4.63395 33.8497L14.8627 67.1001C13.6805 67.9837 12.9032 69.3824 12.9032 70.9677C12.9032 72.2223 13.3954 73.3564 14.1806 74.2164L5.55144 90.3935C5.31754 90.3596 5.08206 90.3226 4.83871 90.3226C2.17128 90.3226 0 92.4939 0 95.1613C0 97.8287 2.17128 100 4.83871 100C7.50614 100 9.67742 97.8287 9.67742 95.1613C9.67742 93.9067 9.1852 92.7727 8.40001 91.9126L17.0292 75.734ZM19.3548 70.9677C19.3548 71.8561 18.6319 72.5806 17.7419 72.5806C16.852 72.5806 16.129 71.8561 16.129 70.9677C16.129 70.0794 16.852 69.3548 17.7419 69.3548C18.6319 69.3548 19.3548 70.0794 19.3548 70.9677ZM27.4194 3.22581C28.3093 3.22581 29.0323 3.95035 29.0323 4.83871C29.0323 5.72707 28.3093 6.45161 27.4194 6.45161C26.5294 6.45161 25.8065 5.72707 25.8065 4.83871C25.8065 3.95035 26.5294 3.22581 27.4194 3.22581ZM3.22581 29.0323C3.22581 28.1439 3.94878 27.4194 4.83871 27.4194C5.72864 27.4194 6.45161 28.1439 6.45161 29.0323C6.45161 29.9206 5.72864 30.6452 4.83871 30.6452C3.94878 30.6452 3.22581 29.9206 3.22581 29.0323ZM4.83871 96.7742C3.94878 96.7742 3.22581 96.0496 3.22581 95.1613C3.22581 94.2729 3.94878 93.5484 4.83871 93.5484C5.72864 93.5484 6.45161 94.2729 6.45161 95.1613C6.45161 96.0496 5.72864 96.7742 4.83871 96.7742Z" fill="black" fill-opacity="0.6"/>
<path d="M19.3555 90.3226H22.5813V93.5484H19.3555V90.3226Z" fill="black" fill-opacity="0.6"/>
<path d="M16.1289 93.5483H19.3547V96.7741H16.1289V93.5483Z" fill="black" fill-opacity="0.6"/>
<path d="M19.3555 96.7742H22.5813V100H19.3555V96.7742Z" fill="black" fill-opacity="0.6"/>
<path d="M22.582 93.5483H25.8078V96.7741H22.582V93.5483Z" fill="black" fill-opacity="0.6"/>
<path d="M70.9688 72.5807H74.1946V75.8065H70.9688V72.5807Z" fill="black" fill-opacity="0.6"/>
<path d="M67.7422 75.8064H70.968V79.0322H67.7422V75.8064Z" fill="black" fill-opacity="0.6"/>
<path d="M70.9688 79.0322H74.1946V82.258H70.9688V79.0322Z" fill="black" fill-opacity="0.6"/>
<path d="M74.1953 75.8064H77.4211V79.0322H74.1953V75.8064Z" fill="black" fill-opacity="0.6"/>
<path d="M3.22656 56.4517H6.45237V59.6775H3.22656V56.4517Z" fill="black" fill-opacity="0.6"/>
<path d="M0 59.6774H3.22581V62.9032H0V59.6774Z" fill="black" fill-opacity="0.6"/>
<path d="M3.22656 62.9032H6.45237V66.129H3.22656V62.9032Z" fill="black" fill-opacity="0.6"/>
<path d="M6.45312 59.6774H9.67893V62.9032H6.45312V59.6774Z" fill="black" fill-opacity="0.6"/>
<path d="M93.5469 0H96.7727V3.22581H93.5469V0Z" fill="black" fill-opacity="0.6"/>
<path d="M90.3242 3.22583H93.55V6.45164H90.3242V3.22583Z" fill="black" fill-opacity="0.6"/>
<path d="M93.5469 6.45166H96.7727V9.67747H93.5469V6.45166Z" fill="black" fill-opacity="0.6"/>
<path d="M96.7734 3.22583H99.9992V6.45164H96.7734V3.22583Z" fill="black" fill-opacity="0.6"/>
<path d="M3.22656 0H6.45237V3.22581H3.22656V0Z" fill="black" fill-opacity="0.6"/>
<path d="M0 3.22583H3.22581V6.45164H0V3.22583Z" fill="black" fill-opacity="0.6"/>
<path d="M3.22656 6.45166H6.45237V9.67747H3.22656V6.45166Z" fill="black" fill-opacity="0.6"/>
<path d="M6.45312 3.22583H9.67893V6.45164H6.45312V3.22583Z" fill="black" fill-opacity="0.6"/>
</g>
<defs>
<clipPath id="clip0">
<rect width="100" height="100" fill="white"/>
</clipPath>
</defs>
</svg>
