<svg width="100" height="100" viewBox="0 0 100 100" fill="none" xmlns="http://www.w3.org/2000/svg">
<path d="M0.585938 45.4918H9.10263V55.7122H0.585938V45.4918Z" fill="black" fill-opacity="0.6"/>
<path d="M21.0273 60.8223H29.544V67.6498C29.544 69.5236 28.025 71.0426 26.1512 71.0426H21.0273V60.8223Z" fill="black" fill-opacity="0.6"/>
<path d="M33.625 44.2466L65.3145 30.1613V71.0426L33.625 56.9572V44.2466Z" fill="black" fill-opacity="0.6"/>
<path d="M12.5078 60.8223H22.7281V79.5593H12.5078V60.8223Z" fill="black" fill-opacity="0.6"/>
<path d="M87.4589 1.20392L73.832 14.8315V26.7548H85.7552L99.3821 13.1279L87.4589 1.20392ZM81.4973 21.6446C80.0858 21.6446 78.9422 20.5009 78.9422 19.0895C78.9422 17.6788 80.0858 16.5344 81.4973 16.5344C82.908 16.5344 84.0524 17.6788 84.0524 19.0895C84.0524 20.5009 82.908 21.6446 81.4973 21.6446Z" fill="black" fill-opacity="0.6"/>
<path d="M12.2912 38.6787H29.761C32.4625 38.6787 34.6529 40.8691 34.6529 43.5707V57.6339C34.6529 60.3355 32.4625 62.5259 29.761 62.5259H12.2912C9.58884 62.5259 7.39844 60.3355 7.39844 57.6339V43.5707C7.39844 40.8691 9.58884 38.6787 12.2912 38.6787Z" fill="black" fill-opacity="0.6"/>
<path d="M82.5172 67.6849L70.4727 79.7302L87.3359 96.5935L99.3804 84.549L82.5172 67.6849ZM83.5906 85.0426C82.7529 84.9777 82.0876 84.3117 82.0236 83.474L81.2057 72.8516L84.6023 72.5906L85.3073 81.7589L94.6639 82.4776L94.4038 85.8742L83.5906 85.0426Z" fill="black" fill-opacity="0.6"/>
<path d="M94.2704 40.3817C94.2704 43.2045 91.9831 45.4918 89.1602 45.4918C86.3381 45.4918 84.0508 43.2045 84.0508 40.3817C84.0508 37.5595 86.3381 35.2715 89.1602 35.2715C91.9831 35.2715 94.2704 37.5595 94.2704 40.3817Z" fill="black" fill-opacity="0.6"/>
<path d="M87.4899 47.1954H90.8338C93.6735 47.1962 95.9745 49.4987 95.9745 52.3376V60.8223H82.3477V52.3376C82.3477 49.498 84.6502 47.1954 87.4899 47.1954Z" fill="black" fill-opacity="0.6"/>
<path d="M80.6451 42.0852C80.6451 43.9666 79.12 45.4918 77.2386 45.4918C75.3571 45.4918 73.832 43.9666 73.832 42.0852C73.832 40.2038 75.3571 38.6787 77.2386 38.6787C79.12 38.6787 80.6451 40.2038 80.6451 42.0852Z" fill="black" fill-opacity="0.6"/>
<path d="M77.2391 47.1954C80.0612 47.1954 82.3492 49.4835 82.3492 52.3056V57.4158H72.1289V52.3056C72.1289 49.4835 74.417 47.1954 77.2391 47.1954Z" fill="black" fill-opacity="0.6"/>
<path d="M64.8144 2.4086L62.4058 0L52.0001 10.4027C46.7068 6.4415 39.204 7.52106 35.2429 12.8143C31.2817 18.1076 32.3612 25.6104 37.6545 29.5715C42.9485 33.5335 50.4505 32.4532 54.4125 27.1599C57.5947 22.9073 57.5947 17.067 54.4125 12.8143L64.8144 2.4086ZM44.8734 28.4584C40.1692 28.4584 36.356 24.6452 36.356 19.9417C36.356 15.2374 40.1692 11.4243 44.8734 11.4243C49.577 11.4243 53.3901 15.2374 53.3901 19.9417C53.3848 24.6429 49.5747 28.4523 44.8734 28.4584Z" fill="black" fill-opacity="0.6"/>
<path d="M46.5764 71.0426H39.7633L29.543 81.2629L48.28 100L61.9069 86.3731L46.5764 71.0426ZM38.5586 83.4655L45.3724 76.6517L47.781 79.0603L40.9672 85.8741L38.5586 83.4655ZM46.0774 90.9843L43.6688 88.5757L50.4826 81.7619L52.8912 84.1705L46.0774 90.9843Z" fill="black" fill-opacity="0.6"/>
</svg>
