<svg width="100" height="100" viewBox="0 0 100 100" fill="none" xmlns="http://www.w3.org/2000/svg">
<mask id="mask0" mask-type="alpha" maskUnits="userSpaceOnUse" x="0" y="0" width="100" height="100">
<path d="M65.657 31.3804H90.406L60.7422 1.71582V26.4648C60.7422 29.1755 62.9471 31.3804 65.657 31.3804Z" fill="black"/>
<path d="M36.6646 67.4675H47.5807L42.1219 56.5506L36.6646 67.4675Z" fill="black"/>
<path d="M65.657 37.2398C59.716 37.2398 54.8828 32.4059 54.8828 26.4648V0H18.5867C12.6457 0 7.8125 4.83322 7.8125 10.775V89.2258C7.8125 95.1668 12.6457 100 18.5867 100H81.3477C87.2887 100 92.1219 95.1668 92.1219 89.2258V37.2398H65.657ZM59.1225 84.0004C58.7021 84.211 58.255 84.3109 57.8148 84.3109C56.7398 84.3109 55.7053 83.7173 55.1918 82.6904L50.5104 73.3269H33.7341L29.0527 82.6904C28.3295 84.1377 26.5694 84.7244 25.1221 84.0004C23.6748 83.2771 23.0881 81.517 23.8113 80.0705L39.5012 48.69C39.9979 47.6974 41.0126 47.0703 42.1219 47.0703C43.232 47.0703 44.2459 47.6974 44.7426 48.69L60.4324 80.0705C61.1565 81.517 60.5698 83.2771 59.1225 84.0004ZM73.5031 60.775H68.5867V65.6906C68.5867 67.308 67.2752 68.6203 65.657 68.6203C64.0396 68.6203 62.7274 67.308 62.7274 65.6906V60.775H57.8125C56.1943 60.775 54.8828 59.4627 54.8828 57.8453C54.8828 56.2271 56.1943 54.9156 57.8125 54.9156H62.7274V50C62.7274 48.3818 64.0396 47.0703 65.657 47.0703C67.2752 47.0703 68.5867 48.3818 68.5867 50V54.9156H73.5031C75.1205 54.9156 76.4328 56.2271 76.4328 57.8453C76.4328 59.4627 75.1205 60.775 73.5031 60.775Z" fill="black"/>
</mask>
<g mask="url(#mask0)">
<rect x="-38" y="-25" width="176" height="151" fill="white"/>
</g>
</svg>
