<svg width="100" height="100" viewBox="0 0 100 100" fill="none" xmlns="http://www.w3.org/2000/svg">
<mask id="mask0" mask-type="alpha" maskUnits="userSpaceOnUse" x="0" y="0" width="100" height="101">
<path d="M99.9994 21.22L87.2581 10.61L74.518 0L61.7757 10.61L49.0344 21.22H62.9778C58.2833 48.758 31.6378 70.1794 1.31622 65.6248C-0.0174666 65.4266 -0.557681 67.1403 0.753181 67.5752C38.4878 80.1158 81.9603 59.5102 88.2494 21.22H99.9994Z" fill="black"/>
<path d="M71.7367 56.799C67.8194 60.2575 63.4379 63.2707 58.6934 65.7908V99.9999H71.7367V56.799Z" fill="black"/>
<path d="M39.1309 100H52.1742V68.8415C48.0297 70.5282 43.6667 71.8578 39.1309 72.7878V100Z" fill="black"/>
<path d="M78.2617 100H91.3051V24.334H90.9758C88.929 33.9911 84.4856 42.7318 78.2617 50.1137V100Z" fill="black"/>
<path d="M13.0434 73.6181C8.61407 72.9995 4.25214 72.0072 0 70.6132V99.9998H13.0434V73.6181Z" fill="black"/>
<path d="M19.5645 100H32.6078V73.8352C29.6416 74.1788 26.6188 74.3594 23.5481 74.3594C22.2155 74.3594 20.8884 74.3116 19.5645 74.2431V100Z" fill="black"/>
</mask>
<g mask="url(#mask0)">
<rect x="-67.0215" y="-65.47" width="234.573" height="230.801" fill="white"/>
</g>
</svg>
