<svg width="100" height="100" viewBox="0 0 100 100" fill="none" xmlns="http://www.w3.org/2000/svg">
<mask id="mask0" mask-type="alpha" maskUnits="userSpaceOnUse" x="0" y="0" width="100" height="100">
<g clip-path="url(#clip0)">
<path d="M48.7379 56.6148C49.0728 56.9497 49.5271 57.1378 50.0007 57.1376C50.4742 57.1378 50.9285 56.9497 51.2634 56.6148C51.5984 56.2799 51.7864 55.8256 51.7862 55.352V47.1637L52.3094 47.6869C53.008 48.3767 54.1323 48.373 54.8264 47.6789C55.5205 46.9848 55.524 45.8605 54.8342 45.1619L51.2646 41.5923C50.5656 40.8965 49.4357 40.8965 48.7367 41.5923L45.1673 45.1619C44.4808 45.8609 44.4859 46.9825 45.1786 47.6754C45.8713 48.3681 46.9929 48.3731 47.6921 47.6867L48.2153 47.1635V55.352C48.2149 55.8258 48.403 56.2801 48.7379 56.6148Z" fill="black"/>
<path d="M64.8087 67.3281C65.1436 67.6631 65.5979 67.8511 66.0715 67.8509C66.545 67.8511 66.9993 67.6631 67.3342 67.3281C67.6692 66.9932 67.8572 66.5389 67.857 66.0653V57.8768L68.3802 58.4C69.0788 59.0898 70.2031 59.0861 70.8972 58.392C71.5913 57.6979 71.5948 56.5736 70.905 55.875L67.3354 52.3054C66.6364 51.6096 65.5065 51.6096 64.8075 52.3054L61.2381 55.875C60.5516 56.574 60.5567 57.6956 61.2494 58.3885C61.9421 59.0812 63.0637 59.0863 63.7629 58.3998L64.2861 57.8766V66.0651C64.2857 66.5391 64.4737 66.9934 64.8087 67.3281Z" fill="black"/>
<path d="M32.6671 67.3282C33.002 67.6631 33.4563 67.8512 33.9299 67.851C34.4034 67.8512 34.8577 67.6631 35.1926 67.3282C35.5276 66.9932 35.7156 66.539 35.7154 66.0654V57.8769L36.2386 58.4001C36.6888 58.8559 37.3485 59.0355 37.9674 58.8711C38.5865 58.7067 39.0698 58.2231 39.2345 57.604C39.3989 56.985 39.2192 56.3252 38.7634 55.8753L35.1938 52.3057C34.4948 51.6099 33.3649 51.6099 32.6659 52.3057L29.0965 55.8753C28.41 56.5742 28.4151 57.6958 29.1078 58.3887C29.8005 59.0814 30.9221 59.0865 31.6213 58.4001L32.1445 57.8769V66.0654C32.1443 66.5392 32.3323 66.9934 32.6671 67.3282Z" fill="black"/>
<path d="M83.9257 35.2482C83.8968 35.2244 83.8733 35.1959 83.8448 35.1718C83.5825 34.9488 83.3322 34.7123 83.0945 34.4631C82.9984 34.3631 82.9072 34.2602 82.8158 34.1567C82.6377 33.9546 82.469 33.7448 82.3074 33.5284C82.2545 33.4573 82.191 33.3939 82.1401 33.3214C82.0891 33.3939 82.0256 33.4573 81.9727 33.5284C81.8114 33.7448 81.6427 33.9546 81.4644 34.1567C81.373 34.2602 81.2818 34.3631 81.1857 34.4631C80.948 34.7123 80.6976 34.9488 80.4353 35.1718C80.4068 35.1959 80.3834 35.2246 80.3545 35.2482V78.5644H83.9257V35.2482Z" fill="black"/>
<path d="M66.071 84.8139C66.1764 82.5949 65.8302 80.3777 65.0533 78.2967C62.3666 71.1922 55.079 66.9328 47.5705 68.0786C40.062 69.2244 34.3764 75.4637 33.9311 83.0463C33.8256 85.2593 34.1719 87.4707 34.9488 89.5457C37.2203 95.6367 42.9379 99.7592 49.4346 99.9899C55.9313 100.221 61.927 96.5138 64.6246 90.5991C65.4597 88.7764 65.9501 86.8151 66.071 84.8139ZM58.2859 82.9926C57.8688 83.8868 56.8087 84.2774 55.9111 83.8675C55.4813 83.6724 55.1472 83.3136 54.9829 82.8713C54.8187 82.4287 54.8378 81.9389 55.0362 81.5107C55.3491 80.5428 55.054 79.4817 54.2863 78.8144L52.2865 83.2425C54.765 84.8807 55.7742 88.0198 54.7148 90.7954C53.6395 92.9116 51.426 94.2033 49.0545 94.0986C48.5026 94.0912 47.9525 94.0314 47.4119 93.9201L47.1797 94.4201C46.8834 95.0499 46.2509 95.453 45.5549 95.4557C45.2965 95.4539 45.0412 95.3993 44.8049 95.295C44.3763 95.0987 44.0431 94.7399 43.8788 94.2978C43.7148 93.8556 43.7331 93.3664 43.93 92.938L44.1622 92.4023C41.6904 90.7676 40.6756 87.6421 41.7159 84.8672C41.9776 84.2819 42.5331 83.8817 43.1713 83.8188C43.8095 83.756 44.4323 84.0399 44.8032 84.5631C45.174 85.0861 45.2361 85.7679 44.9658 86.3493C44.6553 87.3117 44.9506 88.3665 45.7158 89.0276L47.7156 84.6172C45.0754 83.105 44.023 79.8297 45.2883 77.0628C46.5536 74.2959 49.7193 72.9495 52.5902 73.9574L52.8224 73.4397C53.0846 72.8554 53.6399 72.4562 54.2773 72.3937C54.9148 72.3312 55.537 72.615 55.9078 73.1372C56.2787 73.6594 56.3414 74.3404 56.0721 74.9216L55.8399 75.4393C58.3146 77.0802 59.329 80.2125 58.2859 82.9926Z" fill="black"/>
<path d="M50.733 86.6172L48.9653 90.5096C49.9832 90.7643 51.0374 90.2553 51.4714 89.3C51.9051 88.3448 51.5946 87.216 50.733 86.6172Z" fill="black"/>
<path d="M49.2691 81.2249L51.0367 77.3325C50.0355 77.1997 49.0516 77.6776 48.537 78.5466C48.2151 79.5052 48.5043 80.5633 49.2691 81.2249Z" fill="black"/>
<path d="M32.1449 27.676V19.641H19.646V27.676C19.6503 28.1519 19.7091 28.6259 19.8212 29.0884C19.8532 29.2259 19.905 29.3548 19.9458 29.4887C20.0397 29.8032 20.1583 30.1096 20.3004 30.4053C20.3711 30.5494 20.4485 30.6894 20.5297 30.8273C20.6938 31.1032 20.8787 31.3663 21.083 31.6137C21.1757 31.727 21.2617 31.8456 21.3621 31.952C21.6784 32.2938 22.0317 32.5994 22.4155 32.863C24.3311 34.151 26.8008 34.2772 28.8377 33.1911C30.8749 32.1053 32.1466 29.9844 32.1449 27.676Z" fill="black"/>
<path d="M48.2157 27.676V19.641H35.7168V27.676C35.7168 31.1275 38.5148 33.9255 41.9662 33.9255C45.4177 33.9255 48.2157 31.1275 48.2157 27.676Z" fill="black"/>
<path d="M64.2845 27.676V19.641H51.7856V27.676C51.7856 31.1275 54.5836 33.9255 58.0351 33.9255C61.4865 33.9255 64.2845 31.1275 64.2845 27.676Z" fill="black"/>
<path d="M77.5852 32.863C77.969 32.5994 78.3223 32.294 78.6385 31.9522C78.739 31.8456 78.8254 31.7266 78.9185 31.6132C79.1226 31.3657 79.3075 31.103 79.4712 30.8275C79.5524 30.6896 79.63 30.5496 79.7007 30.4053C79.8427 30.11 79.9612 29.8039 80.0549 29.4899C80.0961 29.3554 80.1479 29.2259 80.1801 29.0878C80.2922 28.6255 80.351 28.1518 80.3553 27.676V19.641H67.8564V27.676C67.8547 29.9842 69.1265 32.1051 71.1634 33.1911C73.2003 34.2772 75.6698 34.151 77.5852 32.863Z" fill="black"/>
<path d="M83.9263 19.641V27.676C83.9306 28.1519 83.9894 28.6259 84.1014 29.0884C84.1335 29.2259 84.1852 29.3548 84.226 29.4887C84.32 29.8032 84.4385 30.1096 84.5807 30.4053C84.6514 30.5494 84.7287 30.6894 84.81 30.8273C84.974 31.1032 85.159 31.3663 85.3633 31.6137C85.456 31.727 85.5419 31.8456 85.6423 31.952C85.9587 32.2938 86.312 32.5994 86.6957 32.863C88.6114 34.151 91.0811 34.2772 93.118 33.1911C95.155 32.1051 96.4265 29.9842 96.425 27.676V19.641H83.9263Z" fill="black"/>
<path d="M95.7208 16.07L90.6919 1.21356C90.4465 0.488433 89.7662 0.000195295 89.0005 0H11.0011C10.2355 0.000195295 9.55509 0.488433 9.30961 1.21356L4.28076 16.0698H33.9306H95.7208V16.07Z" fill="black"/>
<path d="M13.305 32.863C13.6887 32.5994 14.042 32.294 14.3582 31.9522C14.4588 31.8456 14.5451 31.7266 14.6383 31.6132C14.8423 31.3657 15.0273 31.103 15.1909 30.8275C15.2722 30.6896 15.3497 30.5496 15.4204 30.4053C15.5624 30.11 15.6809 29.8039 15.7747 29.4899C15.8159 29.3554 15.8676 29.2259 15.8999 29.0878C16.012 28.6255 16.0708 28.1518 16.075 27.676V19.641H3.57617V27.676C3.57442 29.9842 4.84618 32.1051 6.8831 33.1911C8.91983 34.2772 11.3895 34.151 13.305 32.863Z" fill="black"/>
<path d="M18.537 34.1564C18.3589 33.9543 18.1901 33.7446 18.0286 33.5282C17.9757 33.4571 17.9122 33.3936 17.8613 33.3212C17.8103 33.3936 17.7468 33.4571 17.6939 33.5282C17.5326 33.7446 17.3638 33.9543 17.1855 34.1564C17.0941 34.26 17.0029 34.3629 16.9069 34.4629C16.6692 34.7121 16.4188 34.9486 16.1565 35.1716C16.128 35.1956 16.1046 35.2243 16.0757 35.2479V78.5642H19.6468V35.2481C19.6179 35.2243 19.5945 35.1958 19.566 35.1718C19.3037 34.9488 19.0533 34.7123 18.8157 34.4631C18.7196 34.3629 18.6284 34.2601 18.537 34.1564Z" fill="black"/>
<path d="M31.5996 90.7947C30.5694 88.0317 30.1779 85.0714 30.4538 82.1355H10.7187C9.73303 82.1365 8.93408 82.9352 8.93311 83.9211V99.991H38.7123C35.4614 97.7201 32.9804 94.512 31.5996 90.7947Z" fill="black"/>
<path d="M89.283 82.1354H69.5492C70.2207 89.1588 67.0309 95.9941 61.2168 99.991H91.0686V83.921C91.0674 82.9353 90.2687 82.1364 89.283 82.1354Z" fill="black"/>
</g>
</mask>
<g mask="url(#mask0)">
<rect x="-28" y="-28" width="156" height="156" fill="#3A3A3A" fill-opacity="0.6"/>
</g>
<defs>
<clipPath id="clip0">
<rect width="100" height="100" fill="white"/>
</clipPath>
</defs>
</svg>
