<svg width="100" height="100" viewBox="0 0 100 100" fill="none" xmlns="http://www.w3.org/2000/svg">
<mask id="mask0" mask-type="alpha" maskUnits="userSpaceOnUse" x="0" y="0" width="100" height="100">
<path d="M0 63.7931V70.6896C0 72.5948 1.5431 74.1379 3.44828 74.1379H37.931L37.3034 77.5862L34.4828 93.1034H26.269C24.9621 93.1034 23.769 93.8414 23.1845 95.0103C22.0379 97.3017 23.7052 100 26.269 100H73.731C76.2948 100 77.9621 97.3017 76.8155 95.0103C76.231 93.8414 75.0362 93.1034 73.731 93.1034H65.5172L62.6965 77.5862L62.069 74.1379H96.5517C98.4569 74.1379 100 72.5948 100 70.6896V63.7931H0ZM55.1724 70.6896H44.8276V67.2414H55.1724V70.6896Z" fill="black"/>
<path d="M87.9309 22.4138H63.793V25.8621H87.9309V22.4138Z" fill="black"/>
<path d="M74.1378 15.5172H63.793V18.9655H74.1378V15.5172Z" fill="black"/>
<path d="M74.1378 29.3103H63.793V32.7586H74.1378V29.3103Z" fill="black"/>
<path d="M96.5517 0H3.44828C1.5431 0 0 1.5431 0 3.44828V60.3448H100V3.44828C100 1.5431 98.4569 0 96.5517 0ZM25.8621 53.4483C15.3879 53.4483 6.89655 44.9569 6.89655 34.4828C6.89655 24.0086 15.3879 15.5172 25.8621 15.5172V34.4828H44.8276C44.8276 44.9569 36.3362 53.4483 25.8621 53.4483ZM32.7586 27.5862V8.62069C43.2328 8.62069 51.7241 17.1121 51.7241 27.5862H32.7586ZM93.1034 53.4483H58.6207V6.89655H93.1034V53.4483Z" fill="black"/>
<path d="M74.1378 43.1034H63.793V46.5517H74.1378V43.1034Z" fill="black"/>
<path d="M87.9309 36.2069H63.793V39.6552H87.9309V36.2069Z" fill="black"/>
</mask>
<g mask="url(#mask0)">
<rect x="-15" y="-16" width="130" height="133" fill="#3A3A3A" fill-opacity="0.6"/>
</g>
</svg>
