<svg width="100" height="100" viewBox="0 0 100 100" fill="none" xmlns="http://www.w3.org/2000/svg">
<mask id="mask0" mask-type="alpha" maskUnits="userSpaceOnUse" x="0" y="0" width="100" height="100">
<path d="M50 18.7499C47.605 18.7452 45.2749 19.5283 43.3688 20.9784C41.4626 22.4284 40.0862 24.4651 39.4517 26.7746C38.8171 29.084 38.9596 31.538 39.8572 33.7585C40.7548 35.979 42.3576 37.8427 44.4188 39.0624H55.5813C57.6425 37.8427 59.2453 35.979 60.1429 33.7585C61.0405 31.538 61.183 29.084 60.5484 26.7746C59.9139 24.4651 58.5375 22.4284 56.6313 20.9784C54.7252 19.5283 52.3951 18.7452 50 18.7499Z" fill="black"/>
<path d="M33.8203 23.9531C33.7133 24.2593 33.5136 24.5246 33.2491 24.7121C32.9845 24.8997 32.6681 25.0003 32.3438 25H26.5625V34.375H32.3438C32.6681 34.3747 32.9845 34.4753 33.2491 34.6629C33.5136 34.8504 33.7133 35.1157 33.8203 35.4219C34.0137 35.9832 34.2402 36.5326 34.4984 37.0672C34.6401 37.3587 34.6877 37.687 34.6345 38.0067C34.5813 38.3264 34.43 38.6217 34.2016 38.8516L33.9922 39.0625H39.5594C37.7373 37.0431 36.54 34.5387 36.1124 31.8527C35.6848 29.1666 36.0453 26.4142 37.1503 23.9289C38.2552 21.4436 40.0572 19.3321 42.3379 17.8501C44.6186 16.3682 47.2801 15.5794 50 15.5794C52.7199 15.5794 55.3814 16.3682 57.6621 17.8501C59.9428 19.3321 61.7448 21.4436 62.8497 23.9289C63.9547 26.4142 64.3152 29.1666 63.8876 31.8527C63.46 34.5387 62.2627 37.0431 60.4406 39.0625H66.0078L65.7984 38.8516C65.57 38.6217 65.4187 38.3264 65.3655 38.0067C65.3123 37.687 65.3599 37.3587 65.5016 37.0672C65.7598 36.5326 65.9863 35.9832 66.1797 35.4219C66.2867 35.1157 66.4864 34.8504 66.7509 34.6629C67.0155 34.4753 67.3319 34.3747 67.6562 34.375H73.4375V25H67.6562C67.3319 25.0003 67.0155 24.8997 66.7509 24.7121C66.4864 24.5246 66.2867 24.2593 66.1797 23.9531C65.9863 23.3918 65.7598 22.8424 65.5016 22.3078C65.3597 22.016 65.3122 21.6872 65.3657 21.3672C65.4192 21.0472 65.571 20.7517 65.8 20.5219L69.8859 16.4234L63.2641 9.80156L59.1656 13.8875C58.9358 14.1165 58.6403 14.2683 58.3203 14.3218C58.0003 14.3753 57.6715 14.3278 57.3797 14.1859C56.8451 13.9277 56.2957 13.7012 55.7344 13.5078C55.4282 13.4008 55.1629 13.2011 54.9754 12.9366C54.7878 12.672 54.6872 12.3556 54.6875 12.0312V6.25H45.3125V12.0312C45.3128 12.3556 45.2122 12.672 45.0246 12.9366C44.8371 13.2011 44.5718 13.4008 44.2656 13.5078C43.7043 13.7012 43.1549 13.9277 42.6203 14.1859C42.3285 14.3278 41.9997 14.3753 41.6797 14.3218C41.3597 14.2683 41.0642 14.1165 40.8344 13.8875L36.7359 9.80156L30.1141 16.4234L34.2 20.5219C34.429 20.7517 34.5808 21.0472 34.6343 21.3672C34.6878 21.6872 34.6403 22.016 34.4984 22.3078C34.2402 22.8424 34.0137 23.3918 33.8203 23.9531Z" fill="black"/>
<path d="M76.5625 42.1876H23.4375C22.1954 42.1913 21.0053 42.6864 20.127 43.5647C19.2488 44.4429 18.7537 45.6331 18.75 46.8751V59.3751C18.776 64.2659 20.3482 69.0231 23.2417 72.9662C26.1352 76.9094 30.2017 79.8363 34.8594 81.3282C35.1715 81.4322 35.4433 81.6313 35.6366 81.8975C35.8299 82.1636 35.9351 82.4836 35.9375 82.8126V95.3126H64.0625V82.8126C64.0649 82.4836 64.1701 82.1636 64.3634 81.8975C64.5568 81.6313 64.8285 81.4322 65.1406 81.3282C69.7983 79.8363 73.8648 76.9094 76.7583 72.9662C79.6518 69.0231 81.224 64.2659 81.25 59.3751V46.8751C81.2463 45.6331 80.7512 44.4429 79.873 43.5647C78.9947 42.6864 77.8046 42.1913 76.5625 42.1876ZM44.6562 62.7501L46.2813 56.7032C46.3288 56.499 46.417 56.3065 46.5406 56.137C46.6642 55.9676 46.8206 55.8248 47.0005 55.7171C47.1804 55.6094 47.3802 55.539 47.5879 55.5102C47.7956 55.4813 48.007 55.4945 48.2095 55.5491C48.412 55.6036 48.6014 55.6984 48.7665 55.8277C48.9316 55.957 49.0689 56.1182 49.1704 56.3017C49.2719 56.4852 49.3354 56.6873 49.3571 56.8959C49.3788 57.1044 49.3583 57.3153 49.2969 57.5157L48.0781 62.047L52.6094 63.2501C53.0103 63.3596 53.3517 63.6229 53.5595 63.9828C53.7672 64.3427 53.8245 64.7701 53.7188 65.172C53.6306 65.5058 53.4337 65.8006 53.1592 66.01C52.8847 66.2194 52.5483 66.3314 52.2031 66.3282C52.0715 66.3281 51.9404 66.3123 51.8125 66.2814L45.7656 64.6564C45.3662 64.55 45.0251 64.2897 44.8172 63.9324C44.6093 63.5751 44.5514 63.15 44.6562 62.7501ZM29.6875 51.5626C29.2731 51.5626 28.8757 51.398 28.5826 51.105C28.2896 50.812 28.125 50.4145 28.125 50.0001C28.125 49.5857 28.2896 49.1883 28.5826 48.8953C28.8757 48.6022 29.2731 48.4376 29.6875 48.4376H42.1875C42.6019 48.4376 42.9993 48.6022 43.2924 48.8953C43.5854 49.1883 43.75 49.5857 43.75 50.0001C43.75 50.4145 43.5854 50.812 43.2924 51.105C42.9993 51.398 42.6019 51.5626 42.1875 51.5626H29.6875ZM50 79.6876C42.1094 79.6876 35.9375 75.5626 35.9375 70.3126C35.9375 69.8982 36.1021 69.5008 36.3951 69.2078C36.6882 68.9147 37.0856 68.7501 37.5 68.7501C37.9144 68.7501 38.3118 68.9147 38.6049 69.2078C38.8979 69.5008 39.0625 69.8982 39.0625 70.3126C39.0625 73.7032 44.0781 76.5626 50 76.5626C55.9219 76.5626 60.9375 73.7032 60.9375 70.3126C60.9375 69.8982 61.1021 69.5008 61.3951 69.2078C61.6882 68.9147 62.0856 68.7501 62.5 68.7501C62.9144 68.7501 63.3118 68.9147 63.6049 69.2078C63.8979 69.5008 64.0625 69.8982 64.0625 70.3126C64.0625 75.5626 57.8906 79.6876 50 79.6876ZM71.875 51.5626H59.375C58.9606 51.5626 58.5632 51.398 58.2701 51.105C57.9771 50.812 57.8125 50.4145 57.8125 50.0001C57.8125 49.5857 57.9771 49.1883 58.2701 48.8953C58.5632 48.6022 58.9606 48.4376 59.375 48.4376H71.875C72.2894 48.4376 72.6868 48.6022 72.9799 48.8953C73.2729 49.1883 73.4375 49.5857 73.4375 50.0001C73.4375 50.4145 73.2729 50.812 72.9799 51.105C72.6868 51.398 72.2894 51.5626 71.875 51.5626Z" fill="black"/>
</mask>
<g mask="url(#mask0)">
<rect x="-15" y="-16" width="130" height="133" fill="#3A3A3A" fill-opacity="0.6"/>
</g>
</svg>
