<svg width="100" height="100" viewBox="0 0 100 100" fill="none" xmlns="http://www.w3.org/2000/svg">
<mask id="mask0" mask-type="alpha" maskUnits="userSpaceOnUse" x="0" y="0" width="100" height="100">
<g clip-path="url(#clip0)">
<path d="M90.2704 37.4054C89.9809 16.7314 73.0731 0.00256348 52.3313 0.00256348C37.9341 0.00256348 25.0701 8.08224 18.657 20.4279C22.7685 20.4584 26.7884 21.5295 30.3345 23.5062C33.9325 21.5006 38.0183 20.425 42.1927 20.425C48.6929 20.425 54.804 22.9564 59.4005 27.5527C63.9913 32.1435 66.5194 38.2546 66.5194 44.7605C66.5194 51.2663 63.9911 57.3775 59.4005 61.9681L34.4779 86.8911L30.3347 91.0342L27.405 88.1045V99.9975H72.0811V82.753H90.2741V63.4368H100L90.2704 37.4054Z" fill="black"/>
<path d="M55.2569 31.696C51.7673 28.2064 47.1274 26.2843 42.1923 26.2843C37.8062 26.2843 33.6536 27.8023 30.3341 30.5898C27.0146 27.8025 22.8621 26.2843 18.4759 26.2843C13.541 26.2843 8.90135 28.2062 5.41151 31.696C1.92187 35.1857 0 39.8253 0 44.7604C0 49.6956 1.92187 54.3352 5.41151 57.8249L30.3343 82.7479L55.2569 57.8251C62.4608 50.6214 62.4606 38.8999 55.2569 31.696ZM21.5382 50.7796H15.6742V44.9202H21.5382V50.7796ZM33.2663 50.7796H27.4023V44.9202H33.2663V50.7796ZM44.9944 50.7796H39.1304V44.9202H44.9944V50.7796Z" fill="black"/>
</g>
</mask>
<g mask="url(#mask0)">
<rect x="-49" y="-43" width="197" height="186" fill="white"/>
</g>
<defs>
<clipPath id="clip0">
<rect width="100" height="100" fill="white"/>
</clipPath>
</defs>
</svg>
