<svg width="100" height="100" viewBox="0 0 100 100" fill="none" xmlns="http://www.w3.org/2000/svg">
<mask id="mask0" mask-type="alpha" maskUnits="userSpaceOnUse" x="0" y="0" width="100" height="100">
<path d="M27.4456 16.9896C27.4456 9.91026 33.1848 4.17108 40.265 4.17108C47.3443 4.17108 53.084 9.91026 53.084 16.9896C53.084 24.0689 47.3443 29.8078 40.265 29.8078C33.1848 29.808 27.4456 24.0689 27.4456 16.9896ZM46.4254 38.541C46.5539 35.7498 47.5148 33.1664 49.0607 31.0306C47.9757 30.8034 46.8544 30.6827 45.7038 30.6827H34.8277C33.6804 30.6827 32.5606 30.8025 31.4813 31.0269C33.1264 33.3087 34.1104 36.0955 34.1265 39.1122C36.1262 38.0124 38.4207 37.3861 40.8578 37.3861C42.8348 37.3861 44.7168 37.798 46.4254 38.541ZM48.5952 39.6916C52.3186 42.0266 54.9297 45.9759 55.4072 50.5622C56.9244 51.2713 58.6103 51.6804 60.3965 51.6804C66.9195 51.6804 72.2067 46.3926 72.2067 39.8698C72.2067 33.3462 66.9195 28.0596 60.3965 28.0596C53.9332 28.0598 48.6934 33.2525 48.5952 39.6916ZM40.8577 63.8743C47.3795 63.8743 52.6671 58.5851 52.6671 52.0641C52.6671 45.5422 47.3795 40.2539 40.8577 40.2539C34.3352 40.2539 29.0454 45.542 29.0454 52.0641C29.0456 58.5851 34.3352 63.8743 40.8577 63.8743ZM45.8674 64.6781H35.8469C27.509 64.6781 20.7241 71.4625 20.7241 79.8015V92.0579L20.756 92.2499L21.5996 92.5122C29.5571 94.9975 36.4704 95.8287 42.161 95.8287C53.2735 95.8287 59.7173 92.6599 60.1142 92.4571L60.9035 92.0577H60.9873V79.8013C60.9874 71.4625 54.2064 64.6781 45.8674 64.6781ZM65.4089 52.4864H55.4636C55.3555 56.4657 53.6573 60.0492 50.9714 62.625C58.3831 64.829 63.8059 71.7016 63.8059 79.8202V83.5967C73.6235 83.2352 79.282 80.4542 79.6548 80.2667L80.4442 79.8653H80.528V67.6066C80.5291 59.2699 73.7447 52.4864 65.4089 52.4864ZM68.0673 27.8077C71.7909 30.1431 74.4017 34.0925 74.8781 38.6789C76.3955 39.3879 78.0813 39.7963 79.8674 39.7963C86.3917 39.7963 91.6785 34.5093 91.6785 27.9874C91.6785 21.4636 86.3915 16.1772 79.8674 16.1772C73.405 16.1764 68.1656 21.3703 68.0673 27.8077ZM84.8787 40.6025H74.9354C74.8274 44.5818 73.1293 48.1653 70.4435 50.7409C77.855 52.9442 83.2778 59.8177 83.2778 67.9363V71.7128C93.0944 71.352 98.7541 68.5714 99.1268 68.3827L99.9151 67.9825H100V55.7224C100.001 47.3863 93.2168 40.6025 84.8787 40.6025ZM20.1348 51.6805C22.4453 51.6805 24.5938 51.0056 26.4157 49.8567C26.9951 46.0809 29.0195 42.7808 31.9101 40.5342C31.9223 40.3126 31.9426 40.0938 31.9426 39.87C31.9426 33.3464 26.6539 28.0598 20.1348 28.0598C13.6101 28.0598 8.32371 33.3462 8.32371 39.87C8.32371 46.3939 13.61 51.6805 20.1348 51.6805ZM30.7413 62.625C28.0679 60.0615 26.3754 56.4976 26.2508 52.5414C25.8831 52.514 25.5181 52.4864 25.1422 52.4864H15.1228C6.7838 52.4864 0 59.2699 0 67.6078V79.8653L0.030966 80.0561L0.87563 80.3195C7.25799 82.3153 12.9563 83.2326 17.9055 83.5193V79.8189C17.9064 71.7016 23.3279 64.8279 30.7413 62.625Z" fill="black"/>
</mask>
<g mask="url(#mask0)">
<rect x="-61" y="-59" width="222" height="218" fill="white"/>
</g>
</svg>
