<svg width="100" height="100" viewBox="0 0 100 100" fill="none" xmlns="http://www.w3.org/2000/svg">
<mask id="mask0" mask-type="alpha" maskUnits="userSpaceOnUse" x="0" y="0" width="100" height="100">
<path d="M100 3.38611H0V67.1223H100V3.38611Z" fill="black"/>
<path d="M9.24275 85.979C9.34827 86.1047 9.49592 86.1747 9.65849 86.1747H22.3196C22.4822 86.1747 22.6301 86.1047 22.7356 85.9782C23.0746 85.5733 23.4626 85.2225 23.8814 84.9188C23.9258 84.5782 23.9567 84.2334 23.9567 83.8804C23.9567 79.4804 20.3896 75.9133 15.9896 75.9133C11.5896 75.9133 8.02271 79.4804 8.02271 83.8804C8.02271 84.2336 8.05338 84.5782 8.09796 84.9197C8.51575 85.2227 8.90369 85.573 9.24275 85.979Z" fill="black"/>
<path d="M43.2541 85.9789C43.3596 86.1047 43.5075 86.1746 43.6701 86.1746H56.3312C56.494 86.1746 56.6418 86.1047 56.7475 85.9781C57.0866 85.5732 57.4739 85.2225 57.8921 84.9196C57.9367 84.5789 57.9676 84.2337 57.9676 83.8807C57.9676 79.4807 54.4007 75.9137 50.0005 75.9137C45.6005 75.9137 42.0334 79.4807 42.0334 83.8807C42.0334 84.2339 42.0641 84.5789 42.1087 84.9196C42.5277 85.2223 42.915 85.573 43.2541 85.9789Z" fill="black"/>
<path d="M77.6803 86.1746H90.341C90.504 86.1746 90.6519 86.1047 90.7576 85.9781C91.2416 85.3998 91.8191 84.9259 92.4564 84.5593C92.4754 84.3351 92.4903 84.11 92.4903 83.8807C92.4903 79.4808 88.9234 75.9139 84.5232 75.9139C80.123 75.9139 76.5562 79.4808 76.5562 83.8807C76.5562 84.4004 76.6097 84.9065 76.7048 85.3981C76.9009 85.5803 77.0895 85.7703 77.2633 85.9789C77.3694 86.1047 77.5175 86.1746 77.6803 86.1746Z" fill="black"/>
<path d="M4.39384 85.9117C3.46132 85.9117 2.52288 86.2264 1.75212 86.8718C0.00631207 88.3322 -0.225385 90.9315 1.23515 92.6765C3.32799 95.1792 6.39834 96.614 9.65866 96.614H22.3198C25.5803 96.614 28.6501 95.1784 30.7433 92.6757C32.2039 90.9303 31.972 88.3318 30.2264 86.8714C29.455 86.2273 28.5171 85.9121 27.5846 85.9121C26.4067 85.9121 25.237 86.4146 24.4216 87.3892C23.9546 87.9475 23.2934 88.2906 22.5787 88.3585C22.493 88.3665 22.4067 88.3724 22.3198 88.3724H9.65866C9.57196 88.3724 9.48566 88.3665 9.40038 88.3585C8.68566 88.2906 8.0241 87.9471 7.55744 87.39C6.74149 86.4146 5.57196 85.9117 4.39384 85.9117Z" fill="black"/>
<path d="M41.2617 87.0624C41.2265 87.028 41.1887 86.9981 41.1529 86.9656C41.0799 86.9002 41.0061 86.835 40.9292 86.775C40.884 86.7403 40.8374 86.7088 40.7908 86.6756C40.7194 86.6245 40.6472 86.5746 40.5732 86.529C40.5227 86.4975 40.4705 86.4691 40.4188 86.4399C40.3458 86.3988 40.2721 86.3591 40.1969 86.3233C40.1425 86.2977 40.0881 86.273 40.0331 86.2495C39.9572 86.2168 39.8809 86.1867 39.8034 86.1593C39.7474 86.1388 39.6914 86.1194 39.6347 86.1018C39.5552 86.0771 39.4748 86.0558 39.3946 86.036C39.3386 86.0225 39.2832 86.008 39.2269 85.9969C39.1415 85.9793 39.0552 85.9671 38.9683 85.955C38.9161 85.9478 38.864 85.9382 38.811 85.9335C38.7104 85.9235 38.6094 85.92 38.5087 85.9172C38.4742 85.9168 38.4396 85.912 38.4051 85.912C38.4018 85.912 38.3985 85.9125 38.395 85.9125C38.1858 85.9129 37.9764 85.9333 37.7687 85.966C37.7357 85.9712 37.7026 85.9752 37.6697 85.9808C37.4697 86.0168 37.2713 86.0691 37.0768 86.1358C37.0413 86.1478 37.0055 86.1605 36.9703 86.1742C36.7758 86.2466 36.5846 86.3323 36.3995 86.4362C36.3732 86.4509 36.3472 86.4677 36.3214 86.4832C36.1286 86.5971 35.9407 86.7233 35.7634 86.8714C34.0175 88.3313 33.7858 90.9311 35.2464 92.6761C37.3392 95.1787 40.4096 96.6135 43.6699 96.6135H56.3308C59.5908 96.6135 62.6611 95.1779 64.7539 92.6761C66.2145 90.9303 65.9832 88.3313 64.238 86.8714C64.0605 86.7231 63.8728 86.5965 63.6799 86.4832C63.6533 86.4677 63.6284 86.4505 63.602 86.4362C63.4169 86.3327 63.2255 86.2464 63.031 86.1742C62.9959 86.1611 62.9605 86.1482 62.9249 86.1362C62.7298 86.0695 62.5314 86.0168 62.331 85.9808C62.2985 85.9748 62.2656 85.9703 62.2331 85.966C62.0247 85.9333 61.8155 85.9129 61.6057 85.9125C61.6022 85.9125 61.5991 85.912 61.5957 85.912C61.5627 85.912 61.5298 85.9161 61.4971 85.9172C61.3942 85.92 61.2914 85.9231 61.1893 85.9335C61.1376 85.9382 61.0865 85.9478 61.0353 85.955C60.948 85.9671 60.8607 85.9793 60.774 85.9973C60.7186 86.009 60.6633 86.0229 60.6083 86.036C60.5271 86.0556 60.4458 86.0771 60.3654 86.1022C60.3098 86.1202 60.2539 86.139 60.1987 86.1593C60.1202 86.1873 60.0435 86.2176 59.9672 86.2499C59.9128 86.2734 59.8586 86.2977 59.8042 86.3233C59.7294 86.3597 59.6552 86.3992 59.5818 86.4403C59.5298 86.4691 59.4783 86.4973 59.428 86.529C59.3543 86.5746 59.2822 86.6253 59.2108 86.6756C59.164 86.7088 59.1171 86.7403 59.0713 86.7754C58.995 86.835 58.9216 86.8996 58.8488 86.9652C58.8124 86.9975 58.7748 87.028 58.739 87.0624C58.6325 87.165 58.53 87.2728 58.4331 87.3887C57.9654 87.947 57.304 88.2906 56.5893 88.3585C56.5036 88.3664 56.4173 88.3724 56.3304 88.3724H43.6689C43.582 88.3724 43.4959 88.3664 43.4106 88.3585C42.6957 88.2906 42.0343 87.947 41.5676 87.39C41.4709 87.2734 41.3683 87.165 41.2617 87.0624Z" fill="black"/>
<path d="M75.5791 87.3888C74.764 86.4146 73.5938 85.9117 72.4159 85.9117C71.483 85.9117 70.5456 86.2273 69.774 86.8727C68.0286 88.3326 67.7971 90.932 69.2582 92.6774C71.3509 95.1792 74.4208 96.614 77.6811 96.614H90.3419C93.6018 96.614 96.6722 95.1784 98.765 92.6765C100.226 90.9311 99.9942 88.3322 98.2491 86.8718C97.4779 86.2264 96.5401 85.9117 95.6067 85.9117C94.4288 85.9117 93.2595 86.4138 92.4445 87.3888C92.1096 87.7894 91.6738 88.079 91.1914 88.2365C90.9206 88.3252 90.6347 88.3727 90.3429 88.3727H77.9456H77.6811C76.8681 88.3722 76.1024 88.0136 75.5791 87.3888Z" fill="black"/>
</mask>
<g mask="url(#mask0)">
<rect x="-41" y="-35" width="182" height="170" fill="white"/>
</g>
</svg>
