<svg width="189" height="134" viewBox="0 0 189 134" fill="none" xmlns="http://www.w3.org/2000/svg">
<g clip-path="url(#clip0)">
<path opacity="0.1" d="M185.903 89.8135C181.522 98.7366 172.627 104.703 163.408 108.638C150.997 113.937 137.329 116.039 123.85 115.15C121.488 114.995 119.132 114.747 116.784 114.406C108.63 113.231 100.68 110.946 93.1611 107.614C90.9912 106.649 88.8653 105.596 86.7833 104.454C83.3059 102.551 79.974 100.4 76.8142 98.017C76.0195 97.4179 75.2357 96.8036 74.463 96.1741C73.9271 95.7378 73.3961 95.2917 72.857 94.8587C71.7192 93.9454 70.5486 93.0776 69.2427 92.4281C68.8486 92.2319 68.4447 92.0559 68.0324 91.9006C63.897 90.3475 59.1285 90.9335 54.8233 92.1448C51.5487 93.0662 48.3565 94.3279 45.0851 95.2282C43.63 95.6409 42.1473 95.952 40.648 96.1594C37.3006 96.5778 33.9013 96.283 30.679 95.295L30.4036 95.2103C29.9419 95.067 29.4841 94.9102 29.0301 94.7398L28.7548 94.6356C28.3151 94.4685 27.8847 94.2889 27.4637 94.0968L27.1883 93.973C26.7486 93.7712 26.3183 93.5579 25.8973 93.3332C25.7456 93.2551 25.5955 93.1704 25.4471 93.0907C23.0518 91.7698 20.8744 90.0959 18.9902 88.1269C18.9358 88.0732 18.8846 88.0178 18.8253 87.9641C18.5631 87.6841 18.3059 87.3992 18.0569 87.1077C17.9646 87.0003 17.8722 86.8928 17.7816 86.7821C17.4859 86.4262 17.2006 86.062 16.9258 85.6898C16.8846 85.636 16.845 85.5807 16.8054 85.5269C15.6795 83.989 14.7461 82.3223 14.0254 80.5632C14.0024 80.5094 13.9809 80.4541 13.9611 80.4004C13.7413 79.8414 13.5407 79.2732 13.3593 78.6958C13.2851 78.4549 13.2142 78.2075 13.1515 77.9665C13.1301 77.8949 13.1103 77.8216 13.0922 77.75C12.182 74.2123 12.0781 70.5347 12.0781 66.8782C12.0781 66.4516 12.0781 66.0256 12.0781 65.6002C12.1045 59.6857 12.1968 53.6702 13.0806 47.8371C13.0806 47.7964 13.0922 47.7557 13.0988 47.7166C13.3946 45.7528 13.7969 43.8062 14.3041 41.8851C14.8349 39.8693 15.5133 37.8942 16.3338 35.9754C18.3669 31.2542 21.3233 26.9579 24.6062 22.9758C32.8753 12.9555 43.7199 4.54357 56.4128 1.39501C70.0902 -1.99612 85.2911 1.25337 96.3236 9.92575C99.6873 12.5696 102.71 15.7003 106.487 17.7271C109.785 19.4919 113.645 20.2229 117.177 18.8342C120.095 17.6864 121.995 17.1166 125.273 17.2908C132.059 17.6699 138.749 19.0534 145.119 21.395C145.376 21.4878 145.633 21.5839 145.889 21.6799C162.494 27.9526 176.768 40.415 184.188 56.4297C184.385 56.8529 184.576 57.2795 184.761 57.7093C189.184 67.912 190.784 79.8696 185.903 89.8135Z" fill="#3F3D56"/>
<path opacity="0.1" d="M19.8399 121.033C27.879 121.033 34.3961 119.999 34.3961 118.725C34.3961 117.45 27.879 116.416 19.8399 116.416C11.8007 116.416 5.28369 117.45 5.28369 118.725C5.28369 119.999 11.8007 121.033 19.8399 121.033Z" fill="#3F3D56"/>
<path opacity="0.1" d="M150.423 133.556C164.678 133.556 176.233 132.448 176.233 131.081C176.233 129.714 164.678 128.606 150.423 128.606C136.169 128.606 124.614 129.714 124.614 131.081C124.614 132.448 136.169 133.556 150.423 133.556Z" fill="#3F3D56"/>
<path d="M173.791 17.6162H21.2132C20.0758 17.6162 19.1538 18.5266 19.1538 19.6496V103.223C19.1538 104.346 20.0758 105.257 21.2132 105.257H173.791C174.928 105.257 175.85 104.346 175.85 103.223V19.6496C175.85 18.5266 174.928 17.6162 173.791 17.6162Z" fill="url(#paint0_linear)"/>
<path d="M173.561 18.8486H21.4632C20.3258 18.8486 19.4038 19.759 19.4038 20.882V102.932C19.4038 104.055 20.3258 104.965 21.4632 104.965H173.561C174.699 104.965 175.621 104.055 175.621 102.932V20.882C175.621 19.759 174.699 18.8486 173.561 18.8486Z" fill="white"/>
<path d="M173.561 18.8486H21.4632C20.3258 18.8486 19.4038 19.759 19.4038 20.882V102.932C19.4038 104.055 20.3258 104.965 21.4632 104.965H173.561C174.699 104.965 175.621 104.055 175.621 102.932V20.882C175.621 19.759 174.699 18.8486 173.561 18.8486Z" fill="white"/>
<path opacity="0.04" d="M173.561 18.8486H21.4632C20.3258 18.8486 19.4038 19.759 19.4038 20.882V102.932C19.4038 104.055 20.3258 104.965 21.4632 104.965H173.561C174.699 104.965 175.621 104.055 175.621 102.932V20.882C175.621 19.759 174.699 18.8486 173.561 18.8486Z" fill="white"/>
<path d="M174.827 17.8604H20.1969C19.9866 17.8604 19.7848 17.9429 19.6361 18.0897C19.4874 18.2366 19.4038 18.4357 19.4038 18.6434V21.9532H175.614V18.6434C175.614 18.4369 175.531 18.2387 175.384 18.092C175.237 17.9453 175.037 17.8621 174.827 17.8604Z" fill="#5A5773"/>
<path d="M22.5234 20.965C23.1153 20.965 23.5952 20.4913 23.5952 19.9068C23.5952 19.3224 23.1153 18.8486 22.5234 18.8486C21.9315 18.8486 21.4517 19.3224 21.4517 19.9068C21.4517 20.4913 21.9315 20.965 22.5234 20.965Z" fill="white"/>
<path d="M25.4082 20.965C26.0001 20.965 26.48 20.4913 26.48 19.9068C26.48 19.3224 26.0001 18.8486 25.4082 18.8486C24.8163 18.8486 24.3364 19.3224 24.3364 19.9068C24.3364 20.4913 24.8163 20.965 25.4082 20.965Z" fill="white"/>
<path d="M28.2934 20.965C28.8854 20.965 29.3652 20.4913 29.3652 19.9068C29.3652 19.3224 28.8854 18.8486 28.2934 18.8486C27.7015 18.8486 27.2217 19.3224 27.2217 19.9068C27.2217 20.4913 27.7015 20.965 28.2934 20.965Z" fill="white"/>
<path opacity="0.2" d="M74.1914 29.6504H32.269V33.1636H74.1914V29.6504Z" fill="#6C63FF"/>
<path opacity="0.1" d="M162.754 43.7373H32.269V97.7805H162.754V43.7373Z" fill="#5A5773"/>
<path opacity="0.1" d="M108.669 47.2622H106.435V42.9773C106.435 38.1421 102.531 34.1226 97.6336 34.0493C96.4527 34.0371 95.2811 34.2557 94.1861 34.6925C93.0912 35.1294 92.0947 35.7759 91.254 36.5948C90.4133 37.4136 89.7451 38.3887 89.2878 39.4637C88.8305 40.5387 88.5932 41.6925 88.5895 42.8584V47.2622H86.3603C85.3751 47.2652 84.4311 47.6529 83.7345 48.3408C83.0378 49.0286 82.6451 49.9606 82.6421 50.9333V68.5516C82.6451 69.5243 83.0378 70.4563 83.7345 71.1442C84.4311 71.832 85.3751 72.2197 86.3603 72.2227H108.669C109.654 72.2197 110.598 71.8319 111.295 71.1441C111.991 70.4562 112.383 69.5242 112.386 68.5516V50.9333C112.383 49.9608 111.991 49.0287 111.295 48.3409C110.598 47.653 109.654 47.2652 108.669 47.2622ZM98.8174 58.7152V65.0253C98.8196 65.3594 98.6931 65.6819 98.4634 65.9273C98.2338 66.1728 97.9183 66.3229 97.5808 66.3473C97.4046 66.3554 97.2286 66.3282 97.0633 66.2672C96.8981 66.2063 96.7471 66.1129 96.6195 65.9926C96.4918 65.8724 96.3902 65.7279 96.3208 65.5678C96.2514 65.4076 96.2156 65.2353 96.2155 65.0611V58.7119C95.6123 58.4215 95.1266 57.9378 94.8377 57.3397C94.5488 56.7416 94.4736 56.0645 94.6246 55.4189C94.7755 54.7733 95.1437 54.1972 95.6689 53.7847C96.1941 53.3722 96.8454 53.1476 97.5165 53.1476C98.1876 53.1476 98.8389 53.3722 99.3641 53.7847C99.8893 54.1972 100.257 54.7733 100.408 55.4189C100.559 56.0645 100.484 56.7416 100.195 57.3397C99.9063 57.9378 99.4207 58.4215 98.8174 58.7119V58.7152ZM103.837 47.2622H91.1915V42.8584C91.1915 41.2035 91.8573 39.6163 93.0426 38.446C94.2278 37.2757 95.8354 36.6183 97.5116 36.6183C99.1877 36.6183 100.795 37.2757 101.981 38.446C103.166 39.6163 103.832 41.2035 103.832 42.8584L103.837 47.2622Z" fill="black"/>
<path d="M108.669 46.936H106.435V42.6511C106.435 37.8159 102.531 33.7964 97.6336 33.7231C96.4527 33.7109 95.2811 33.9295 94.1861 34.3664C93.0912 34.8032 92.0947 35.4497 91.254 36.2686C90.4133 37.0875 89.7451 38.0625 89.2878 39.1375C88.8305 40.2125 88.5932 41.3663 88.5895 42.5323V46.936H86.3603C85.3751 46.939 84.4311 47.3268 83.7345 48.0146C83.0378 48.7024 82.6451 49.6344 82.6421 50.6072V68.2254C82.6451 69.1981 83.0378 70.1302 83.7345 70.818C84.4311 71.5058 85.3751 71.8936 86.3603 71.8966H108.669C109.654 71.8936 110.598 71.5058 111.295 70.8179C111.991 70.13 112.383 69.198 112.386 68.2254V50.6072C112.383 49.6346 111.991 48.7026 111.295 48.0147C110.598 47.3268 109.654 46.939 108.669 46.936ZM98.8174 58.389V64.6992C98.8196 65.0333 98.6931 65.3557 98.4634 65.6012C98.2338 65.8466 97.9183 65.9967 97.5808 66.0211C97.4046 66.0292 97.2286 66.002 97.0633 65.9411C96.8981 65.8801 96.7471 65.7867 96.6195 65.6665C96.4918 65.5462 96.3902 65.4017 96.3208 65.2416C96.2514 65.0815 96.2156 64.9091 96.2155 64.735V58.3858C95.6123 58.0953 95.1266 57.6116 94.8377 57.0135C94.5488 56.4155 94.4736 55.7384 94.6246 55.0927C94.7755 54.4471 95.1437 53.871 95.6689 53.4585C96.1941 53.046 96.8454 52.8215 97.5165 52.8215C98.1876 52.8215 98.8389 53.046 99.3641 53.4585C99.8893 53.871 100.257 54.4471 100.408 55.0927C100.559 55.7384 100.484 56.4155 100.195 57.0135C99.9063 57.6116 99.4207 58.0953 98.8174 58.3858V58.389ZM103.837 46.936H91.1915V42.5323C91.1915 40.8773 91.8573 39.2901 93.0426 38.1198C94.2278 36.9496 95.8354 36.2921 97.5116 36.2921C99.1877 36.2921 100.795 36.9496 101.981 38.1198C103.166 39.2901 103.832 40.8773 103.832 42.5323L103.837 46.936Z" fill="#E00909"/>
<path opacity="0.1" d="M162.753 38.5361H149.545V41.6147H162.753V38.5361Z" fill="#5A5773"/>
<path d="M167.249 131.827C167.162 131.395 167.013 130.978 166.807 130.588L164.828 127.67H164.84C164.84 127.67 164.528 126.205 164.84 125.486C165.151 124.766 163.728 122.996 163.728 122.996C163.728 122.996 163.555 122.552 164.007 122.005C164.459 121.458 163.728 119.856 163.728 119.856C163.728 119.856 163.382 116.51 163.348 115.999C163.313 115.488 163.034 112.655 163.034 112.655L162.375 106.65L161.201 90.7327L161.179 90.4347C161.324 90.3647 161.402 90.3208 161.402 90.3208L161.168 81.5198L161.371 81.3391C163.141 79.7567 167.226 76.0937 167.184 76.0139C167.143 75.9341 166.69 69.8975 166.637 68.3867C166.592 67.313 166.354 66.2558 165.935 65.2642C165.832 65.0639 165.537 63.7436 165.415 63.1852C165.382 63.0322 165.361 62.9361 165.361 62.9361C165.361 62.9361 164.164 60.683 164.268 59.659C164.372 58.6349 164.579 57.8682 162.027 57.51C162.027 57.51 159.883 57.1942 158.607 56.3329C157.852 55.8171 157.027 55.4093 156.157 55.1217C156.157 55.1217 155.441 53.8193 154.943 54.2605C154.732 53.7958 154.575 53.3092 154.473 52.8099L154.459 52.7188C155.404 52.068 156.084 51.1067 156.378 50.0065C156.394 49.9447 156.407 49.8812 156.422 49.8193C156.472 49.8359 156.523 49.8452 156.576 49.847C157.009 49.847 157.276 49.37 157.682 49.2186C157.847 49.1551 158.05 49.1453 158.177 49.0167C158.219 48.9671 158.25 48.9097 158.268 48.8478C158.287 48.786 158.293 48.721 158.286 48.6569C158.29 48.6125 158.29 48.5678 158.286 48.5234C158.286 48.5077 158.286 48.4919 158.286 48.4762V48.4925C158.175 47.8999 157.71 47.374 157.761 46.7717C157.811 46.2051 158.315 45.707 158.274 45.1551C158.273 45.1114 158.27 45.0679 158.262 45.0248V45.0444C158.201 44.8289 158.088 44.6312 157.933 44.4681C157.755 44.2293 157.522 44.0361 157.253 43.9048C157.024 43.8055 156.759 43.7827 156.544 43.6638C155.914 43.3252 155.916 42.4428 155.542 41.8405C155.381 41.589 155.154 41.3862 154.884 41.2543C154.614 41.1224 154.313 41.0667 154.013 41.0932C153.545 41.1388 153.121 41.3846 152.658 41.4644C152.025 41.5751 151.38 41.3716 150.78 41.1388C150.18 40.906 149.571 40.6504 148.927 40.6504C148.282 40.6504 147.584 40.976 147.39 41.5767C147.286 41.9023 147.337 42.2523 147.258 42.5828C147.116 43.1657 146.598 43.5824 146.063 43.8722C145.733 44.0529 145.34 44.2597 145.238 44.6016C145.238 44.5918 145.238 44.5836 145.238 44.5755C145.231 44.6028 145.225 44.6305 145.222 44.6585C145.218 44.6948 145.218 44.7313 145.222 44.7676C145.222 45.002 145.347 45.2251 145.431 45.4481C145.588 45.8724 145.584 46.3383 145.421 46.7603C145.299 47.0696 145.091 47.3415 144.973 47.6492C144.917 47.7925 144.88 47.9425 144.864 48.0953V48.0692C144.86 48.1386 144.86 48.2082 144.864 48.2776C144.862 48.5153 144.918 48.75 145.029 48.9613C145.104 49.1073 145.209 49.2368 145.336 49.3422C145.463 49.4476 145.61 49.5268 145.769 49.5751C146.099 49.65 146.305 49.3309 146.653 49.4123C146.715 49.4271 146.776 49.4461 146.836 49.4693C146.847 49.5425 146.859 49.6158 146.872 49.6874C147.082 50.7831 147.674 51.7718 148.544 52.4827C148.544 52.5218 148.557 52.5609 148.562 52.6016C148.667 53.2506 148.713 53.9077 148.699 54.5649C148.699 54.5649 148.18 53.8144 147.467 55.2634C147.467 55.2634 145.609 56.3216 144.968 56.442C144.326 56.5625 142.049 57.3456 142.049 57.3456C141.706 57.5908 141.292 57.7224 140.869 57.7216C140.158 57.7216 139.568 59.2568 139.653 60.092C139.739 60.9272 139.602 61.5426 138.941 61.5767C138.28 61.6109 138.641 62.9345 138.646 62.9573L138.585 63.2422C138.456 63.825 138.176 65.0753 138.077 65.2707C137.658 66.2624 137.419 67.3195 137.373 68.3932C137.322 69.904 136.878 75.9178 136.827 76.0204C136.793 76.0871 139.591 78.6122 141.558 80.3769L141.843 80.6309L140.938 88.9793C140.964 89.301 141.061 89.6131 141.222 89.8942C141.382 90.1753 141.603 90.4186 141.868 90.6073C141.868 90.705 141.868 90.8043 141.858 90.9069C141.818 91.8837 141.739 93.0656 141.581 93.3749C141.304 93.9219 141.373 96.8556 141.373 96.8556C141.373 96.8556 141.094 102.827 140.748 103.477C140.402 104.126 140.331 105.489 140.435 105.756C140.539 106.023 140.087 113.194 140.087 113.194L139.741 116.403C139.741 116.403 139.845 119.473 139.531 119.542C139.218 119.61 139.045 121.727 139.045 121.727C139.045 121.727 137.935 123.228 138.42 123.773C138.905 124.318 138.349 124.559 138.298 124.694C138.247 124.83 137.239 125.346 137.968 127.254C137.975 127.273 137.983 127.291 137.991 127.309C137.309 128.245 135.145 131.265 135.277 131.724C135.375 132.016 135.581 132.261 135.854 132.408C136.364 132.709 137.238 132.849 138.628 132.408C140.936 131.674 140.771 131.145 140.771 131.145C140.783 130.897 140.891 130.664 141.072 130.492C141.253 130.321 141.493 130.225 141.744 130.223C142.699 130.155 143.411 129.285 143.411 129.285L143.299 128.874L143.146 128.304C143.164 128.141 143.281 127.856 143.805 127.698C144.605 127.459 144.395 125.958 144.395 125.958C144.395 125.958 144.326 124.388 144.672 124.183C145.019 123.978 144.882 121.385 144.882 121.385C144.882 121.385 145.264 119.508 145.818 118.244C146.372 116.981 147.035 109.476 147.035 109.476C147.035 109.476 147.485 105.79 147.903 104.732C148.32 103.674 148.702 100.706 148.702 100.706C148.702 100.706 151.273 95.7909 151.306 94.6985C151.306 94.6985 151.636 93.6745 151.965 94.801C152.295 95.9276 153.222 98.6236 153.222 98.6236L154.124 101.933L155.201 106.881L155.896 111.045C155.896 111.045 155.791 112.615 156.061 113.162C156.332 113.709 156.721 114.969 156.513 115.208C156.305 115.447 156.929 116.574 157.103 116.812C157.278 117.049 157.103 122.101 157.103 122.101C157.103 122.101 157.901 126.401 159.047 127.148C159.127 127.2 159.212 127.243 159.301 127.278C159.285 127.744 159.268 128.367 159.29 128.693C159.287 128.766 159.299 128.838 159.326 128.906C159.43 129.043 160.61 129.964 160.854 129.964C161.099 129.964 161.964 130.562 162 130.852C162.037 131.141 164.538 132.369 164.893 132.405C165.247 132.44 166.965 132.745 167.201 132.268C167.259 132.128 167.276 131.975 167.249 131.827ZM161.103 70.3338L161.282 70.4852C161.282 70.4852 161.465 71.8934 161.595 72.3151C161.725 72.7367 161.568 73.5572 161.568 73.5572C161.58 73.8635 161.642 74.1658 161.751 74.4526C161.906 74.7603 161.438 75.4294 161.438 75.4294H161.021L160.891 70.158L161.103 70.3338ZM148.699 54.5942V54.5633C148.696 54.5731 148.694 54.5845 148.694 54.5942H148.699ZM142.293 74.8873C142.229 74.7509 142.22 74.5956 142.267 74.4526C142.304 74.3753 142.333 74.2946 142.354 74.2117C142.405 73.9978 142.437 73.7799 142.45 73.5605C142.45 73.5578 142.45 73.555 142.45 73.5523C142.435 73.4742 142.301 72.7188 142.425 72.3183C142.549 71.9178 142.737 70.4884 142.737 70.4884L142.855 70.3891L143.131 70.1531C143.131 70.1531 143.131 70.0652 143.151 69.9203C143.208 71.1576 143.254 72.5251 143.18 72.5934C143.042 72.7286 142.537 74.0587 142.659 74.1107C142.699 74.1287 142.644 74.661 142.552 75.3773C142.448 75.2236 142.362 75.0593 142.293 74.8873Z" fill="url(#paint1_linear)"/>
<path d="M155.582 55.8952V57.9204L151.374 60.0091C151.374 60.0091 147.196 57.5134 148.226 56.5203C148.886 55.8919 148.759 54.1662 148.581 52.9794C148.477 52.2892 148.357 51.7828 148.357 51.7828C148.357 51.7828 155.862 49.6664 154.728 51.2733C154.349 51.8105 154.319 52.5057 154.446 53.1943C154.703 54.5602 155.582 55.8952 155.582 55.8952Z" fill="#C37098"/>
<path d="M144.055 75.6994L143.513 82.2961C143.513 82.2961 142.7 81.5684 141.648 80.6209C139.697 78.8643 136.927 76.3523 136.96 76.2855C137.011 76.1829 137.455 70.1984 137.503 68.6941C137.548 67.6264 137.783 66.5748 138.199 65.5879C138.297 65.3925 138.576 64.1487 138.693 63.5675C138.733 63.3868 138.758 63.2696 138.758 63.2696L139.668 62.9082C139.668 62.9082 143.46 67.0857 143.46 67.1622C143.46 67.2387 143.201 70.4475 143.201 70.4475L142.932 70.6787L142.815 70.778C142.815 70.778 142.634 72.1797 142.505 72.5997C142.377 73.0197 142.515 73.7491 142.53 73.8272C142.518 74.0466 142.487 74.2645 142.436 74.4784C142.415 74.5607 142.385 74.6408 142.349 74.7177C142.302 74.8602 142.312 75.0148 142.375 75.1508C142.448 75.3395 142.544 75.5193 142.659 75.6864L144.055 75.6994Z" fill="#3F3D56"/>
<path d="M167.038 76.2855C167.078 76.3653 163.033 80.0104 161.281 81.5847L160.486 82.2961L159.948 75.6994H161.342C161.342 75.6994 161.807 75.0368 161.652 74.7308C161.543 74.4454 161.483 74.1447 161.472 73.8402C161.472 73.8402 161.625 73.0262 161.497 72.6046C161.368 72.1829 161.187 70.7829 161.187 70.7829L161.01 70.6331L160.801 70.4524C160.801 70.4524 160.542 67.2436 160.542 67.1671C160.542 67.0905 164.334 62.9131 164.334 62.9131L165.238 63.2696C165.238 63.2696 165.258 63.3657 165.291 63.5187C165.413 64.0739 165.704 65.3877 165.805 65.5879C166.22 66.5748 166.456 67.6264 166.501 68.6941C166.544 70.1984 166.986 76.1829 167.038 76.2855Z" fill="#3F3D56"/>
<path d="M167.056 132.28C166.814 132.755 165.112 132.443 164.761 132.416C164.41 132.39 161.93 131.158 161.895 130.87C161.861 130.582 161.001 129.987 160.761 129.987C160.52 129.987 159.351 129.069 159.247 128.934C159.221 128.867 159.209 128.795 159.212 128.723C159.176 128.164 159.247 126.727 159.247 126.727L164.235 126.998L166.659 130.598C166.863 130.986 167.011 131.401 167.097 131.83C167.127 131.981 167.112 132.137 167.056 132.28Z" fill="#3F3D56"/>
<path opacity="0.1" d="M167.056 132.28C166.814 132.755 165.112 132.443 164.761 132.416C164.41 132.39 161.93 131.158 161.895 130.87C161.861 130.582 161.001 129.987 160.761 129.987C160.52 129.987 159.351 129.069 159.247 128.934C159.221 128.867 159.209 128.795 159.212 128.723C159.176 128.164 159.247 126.727 159.247 126.727L164.235 126.998L166.659 130.598C166.863 130.986 167.011 131.401 167.097 131.83C167.127 131.981 167.112 132.137 167.056 132.28Z" fill="black"/>
<path opacity="0.1" d="M167.055 132.28C166.812 132.755 165.111 132.443 164.759 132.417C164.408 132.391 161.928 131.158 161.894 130.87C161.859 130.582 161 129.988 160.759 129.988C160.519 129.988 159.35 129.069 159.246 128.934C159.219 128.867 159.208 128.795 159.211 128.723L160.827 129.732C160.827 129.732 161.859 130.383 162.134 130.769C162.41 131.155 164.58 131.958 164.759 131.974C164.893 131.987 166.318 131.717 167.096 131.831C167.125 131.981 167.111 132.137 167.055 132.28Z" fill="black"/>
<path d="M143.477 129.309C143.477 129.309 142.771 130.175 141.828 130.242C141.579 130.244 141.341 130.34 141.161 130.51C140.982 130.681 140.876 130.913 140.865 131.158C140.865 131.158 141.03 131.686 138.75 132.417C137.373 132.855 136.507 132.716 136.003 132.417C135.732 132.269 135.528 132.026 135.431 131.736C135.276 131.194 138.319 127.067 138.319 127.067L141.089 126.904L143.068 127.787L143.372 128.905L143.477 129.309Z" fill="#3F3D56"/>
<path opacity="0.1" d="M143.477 129.309C143.477 129.309 142.771 130.175 141.828 130.242C141.579 130.244 141.341 130.34 141.161 130.51C140.982 130.681 140.876 130.913 140.865 131.158C140.865 131.158 141.03 131.686 138.75 132.417C137.373 132.855 136.507 132.716 136.003 132.417C135.732 132.269 135.528 132.026 135.431 131.736C135.276 131.194 138.319 127.067 138.319 127.067L141.089 126.904L143.068 127.787L143.372 128.905L143.477 129.309Z" fill="black"/>
<path opacity="0.1" d="M143.476 129.309C143.476 129.309 142.771 130.175 141.827 130.242C141.579 130.243 141.34 130.339 141.161 130.51C140.981 130.681 140.875 130.913 140.864 131.158C140.864 131.158 141.029 131.686 138.749 132.417C137.372 132.854 136.507 132.716 136.002 132.417C137.3 132.283 140.167 131.474 140.454 131.194C140.799 130.854 141.229 129.919 141.521 129.903C141.724 129.89 142.754 129.278 143.372 128.898L143.476 129.309Z" fill="black"/>
<path d="M164.716 125.521C164.406 126.234 164.716 127.695 164.716 127.695C164.716 127.695 160.099 127.932 158.971 127.185C157.843 126.438 157.045 122.158 157.045 122.158C157.045 122.158 157.21 117.132 157.045 116.894C156.88 116.657 156.254 115.537 156.46 115.299C156.666 115.061 156.295 113.804 156.013 113.261C155.731 112.717 155.848 111.156 155.848 111.156L155.159 107.011L154.094 102.088L153.188 98.7927C153.188 98.7927 152.26 96.1097 151.945 94.9896C151.63 93.8696 151.297 94.8871 151.297 94.8871C151.264 95.9746 148.718 100.865 148.718 100.865C148.718 100.865 148.339 103.82 147.927 104.872C147.515 105.923 147.066 109.593 147.066 109.593C147.066 109.593 146.407 117.064 145.862 118.321C145.318 119.577 144.944 121.445 144.944 121.445C144.944 121.445 145.082 124.027 144.738 124.23C144.393 124.434 144.449 125.997 144.449 125.997C144.449 125.997 144.655 127.489 143.864 127.729C143.073 127.968 143.204 128.476 143.204 128.476C143.204 128.476 138.802 129.189 138.08 127.286C137.358 125.383 138.355 124.877 138.41 124.74C138.464 124.603 139.013 124.367 138.532 123.822C138.05 123.276 139.15 121.785 139.15 121.785C139.15 121.785 139.323 119.68 139.631 119.612C139.94 119.543 139.839 116.487 139.839 116.487L140.182 113.295C140.182 113.295 140.631 106.163 140.527 105.891C140.423 105.619 140.492 104.263 140.837 103.612C141.181 102.96 141.455 97.0214 141.455 97.0214C141.455 97.0214 141.386 94.1024 141.661 93.5586C141.826 93.2509 141.895 92.0674 141.935 91.102C141.964 90.3645 141.971 89.754 141.971 89.754L145.823 88.3279L150.769 86.7666L154.931 88.7365L161.02 89.8907L161.096 90.9278L162.259 106.77L162.918 112.746C162.918 112.746 163.194 115.564 163.228 116.074C163.263 116.583 163.606 119.913 163.606 119.913C163.606 119.913 164.328 121.508 163.881 122.052C163.434 122.596 163.606 123.029 163.606 123.029C163.606 123.029 165.025 124.808 164.716 125.521Z" fill="#3F3D56"/>
<path opacity="0.1" d="M154.731 51.2729C154.351 51.8101 154.322 52.5053 154.449 53.1939C153.582 53.7975 152.539 54.1032 151.479 54.0641C150.419 54.025 149.402 53.6432 148.584 52.9774C148.48 52.2871 148.359 51.7808 148.359 51.7808C148.359 51.7808 155.865 49.6677 154.731 51.2729Z" fill="black"/>
<path d="M156.486 49.1959C156.486 50.1393 156.202 51.0616 155.671 51.846C155.141 52.6304 154.386 53.2418 153.503 53.6028C152.62 53.9639 151.649 54.0583 150.712 53.8743C149.775 53.6902 148.914 53.2359 148.238 52.5688C147.563 51.9017 147.102 51.0518 146.916 50.1265C146.73 49.2012 146.825 48.2421 147.191 47.3705C147.557 46.4989 148.176 45.7539 148.97 45.2297C149.765 44.7056 150.699 44.4258 151.654 44.4258C152.29 44.4228 152.919 44.5441 153.507 44.7828C154.094 45.0214 154.628 45.3727 155.077 45.8162C155.527 46.2598 155.882 46.7868 156.124 47.3669C156.366 47.947 156.489 48.5686 156.486 49.1959Z" fill="#C37098"/>
<path opacity="0.1" d="M157.493 57.1224L155.91 84.9531L147.311 83.1705L145.608 72.0138L147.295 57.0361L148.564 57.1973L150.803 57.4789L153.021 57.6141L155.425 57.3503L157.493 57.1224Z" fill="black"/>
<path d="M157.493 57.3259L155.91 85.1566L147.311 83.3739L145.608 72.2172L147.295 57.2412L148.564 57.4008L150.803 57.6824L153.021 57.8175L155.425 57.5538L157.493 57.3259Z" fill="#E00909"/>
<path d="M150.423 58.0732L153.519 58.1758L152.649 59.3789C152.649 59.3789 152.71 61.8095 153.124 62.5063C153.538 63.2031 153.416 73.9674 153.416 73.9674L152.591 75.5124L151.181 73.7802L151.199 59.5678L150.423 58.0732Z" fill="#3F3D56"/>
<path opacity="0.1" d="M150.423 58.0732L153.519 58.1758L152.649 59.3789C152.649 59.3789 152.71 61.8095 153.124 62.5063C153.538 63.2031 153.416 73.9674 153.416 73.9674L152.591 75.5124L151.181 73.7802L151.199 59.5678L150.423 58.0732Z" fill="black"/>
<path opacity="0.1" d="M155.273 54.915L152.384 58.0734L154.035 59.7714L156.77 57.1389L155.273 54.915Z" fill="black"/>
<path d="M155.273 54.7119L152.384 57.8702L154.035 59.5683L156.77 56.9358L155.273 54.7119Z" fill="#E00909"/>
<path opacity="0.1" d="M151.164 57.9206L148.239 55.0342L147.964 56.545L149.306 59.8563L151.164 57.9206Z" fill="black"/>
<path d="M151.266 57.7165L148.343 54.8301L148.067 56.3409L149.41 59.6522L151.266 57.7165Z" fill="#E00909"/>
<path opacity="0.1" d="M161.111 90.9327C159.707 91.5931 158.203 92.0226 156.659 92.2041C153.821 92.5607 151.964 88.9953 151.964 88.9953L150.881 90.3873C150.537 91.8655 145.291 92.2383 143.159 91.6783C142.717 91.5704 142.301 91.3761 141.936 91.1069C141.966 90.3694 141.972 89.7589 141.972 89.7589L145.824 88.3327L150.771 86.7715L154.932 88.7414L161.022 89.8956L161.111 90.9327Z" fill="black"/>
<path opacity="0.1" d="M157.493 57.3275L155.912 85.1566L147.311 83.3739L145.604 72.2188L147.29 57.2412L148.559 57.404C148.527 57.9496 148.465 58.493 148.373 59.032C148.167 59.9844 149.44 66.7422 149.44 66.7422C149.44 66.7422 151.859 74.3206 152.947 73.2282C154.035 72.1358 155.585 66.3678 155.585 66.3678C156.635 64.2286 155.603 58.2278 155.526 58.1073C155.472 57.9298 155.439 57.7469 155.427 57.5619L157.493 57.3275Z" fill="black"/>
<path opacity="0.1" d="M161.206 78.8634L161.279 81.5903L160.484 82.3017L159.948 75.7002H161.135L161.206 78.8634Z" fill="black"/>
<path opacity="0.1" d="M142.532 73.832C142.52 74.0514 142.489 74.2693 142.438 74.4832C142.438 74.423 142.438 74.3888 142.425 74.3839C142.376 74.3709 142.435 74.1218 142.532 73.832Z" fill="black"/>
<path opacity="0.1" d="M144.056 75.6997L143.513 82.2963C143.513 82.2963 142.7 81.5686 141.648 80.6211L141.774 79.4522C141.774 79.4522 142.217 76.5804 142.379 75.1641C142.452 75.3528 142.547 75.5325 142.662 75.6997H144.056Z" fill="black"/>
<path d="M148.72 54.9317C148.72 54.9317 148.205 54.1844 147.499 55.6268C147.499 55.6268 145.659 56.6802 145.026 56.799C144.393 56.9178 142.141 57.6993 142.141 57.6993C141.8 57.9421 141.391 58.0725 140.972 58.0721C140.266 58.0721 139.68 59.6008 139.766 60.4327C139.852 61.2646 139.715 61.8767 139.062 61.9109C138.409 61.9451 138.769 63.285 138.769 63.285L143.12 68.2097C143.12 68.2097 143.395 72.7437 143.258 72.8804C143.122 73.0172 142.622 74.3456 142.742 74.3912C142.863 74.4368 142.083 79.451 142.083 79.451L141.034 89.1816C141.034 89.1816 141.034 90.8096 143.168 91.3713C145.301 91.9329 150.55 91.5617 150.888 90.0835L151.971 88.6899C151.971 88.6899 153.828 92.2569 156.665 91.9004C159.503 91.5438 161.31 90.5247 161.31 90.5247L161 78.8633L160.794 70.4579L165.225 63.2703C165.225 63.2703 164.037 61.0285 164.141 60.0143C164.245 59.0001 164.45 58.2316 161.922 57.8751C161.922 57.8751 159.79 57.5609 158.534 56.7029C157.787 56.1911 156.971 55.7855 156.11 55.4982C156.11 55.4982 155.401 54.1958 154.908 54.6419C154.908 54.6419 155.402 56.4832 155.361 56.7583C155.32 57.0334 155.439 58.2772 155.516 58.4058C155.594 58.5344 156.626 64.5271 155.576 66.6663C155.576 66.6663 154.034 72.4343 152.937 73.5267C151.841 74.6191 149.43 67.0408 149.43 67.0408C149.43 67.0408 148.157 60.2813 148.363 59.3305C148.569 58.3798 148.72 54.9317 148.72 54.9317Z" fill="#3F3D56"/>
<path d="M152.4 77.1947C152.818 77.1947 153.157 76.8601 153.157 76.4474C153.157 76.0348 152.818 75.7002 152.4 75.7002C151.982 75.7002 151.644 76.0348 151.644 76.4474C151.644 76.8601 151.982 77.1947 152.4 77.1947Z" fill="#3F3D56"/>
<path d="M152.4 80.7171C152.818 80.7171 153.157 80.3826 153.157 79.9699C153.157 79.5572 152.818 79.2227 152.4 79.2227C151.982 79.2227 151.644 79.5572 151.644 79.9699C151.644 80.3826 151.982 80.7171 152.4 80.7171Z" fill="#3F3D56"/>
<path opacity="0.1" d="M152.4 77.1947C152.818 77.1947 153.157 76.8601 153.157 76.4474C153.157 76.0348 152.818 75.7002 152.4 75.7002C151.982 75.7002 151.644 76.0348 151.644 76.4474C151.644 76.8601 151.982 77.1947 152.4 77.1947Z" fill="black"/>
<path opacity="0.1" d="M152.4 80.7171C152.818 80.7171 153.157 80.3826 153.157 79.9699C153.157 79.5572 152.818 79.2227 152.4 79.2227C151.982 79.2227 151.644 79.5572 151.644 79.9699C151.644 80.3826 151.982 80.7171 152.4 80.7171Z" fill="black"/>
<path opacity="0.1" d="M159.202 124.503C159.202 124.503 162.309 124.741 162.617 124.978C162.925 125.216 159.202 124.503 159.202 124.503Z" fill="black" stroke="#6C63FF" stroke-miterlimit="10"/>
<path opacity="0.1" d="M140.708 122.092C140.708 122.092 141.367 122.906 141.087 123.28C140.806 123.655 140.708 122.092 140.708 122.092Z" fill="black" stroke="#6C63FF" stroke-miterlimit="10"/>
<path opacity="0.1" d="M141.499 125.027C141.499 125.027 142.702 124.246 143.184 124.765C143.665 125.284 141.499 125.027 141.499 125.027Z" fill="black" stroke="#6C63FF" stroke-miterlimit="10"/>
<path opacity="0.1" d="M156.486 49.1961C156.487 49.6031 156.435 50.0086 156.331 50.4025C156.23 50.3567 156.144 50.2813 156.087 50.1865C156.03 50.0916 156.004 49.9818 156.011 49.8717C156.033 49.678 156.163 49.5005 156.135 49.3084C156.094 49.0121 155.731 48.8917 155.54 48.6572C155.304 48.374 155.355 47.9621 155.375 47.5958C155.395 47.2295 155.301 46.7818 154.953 46.6564C154.849 46.619 154.735 46.6157 154.635 46.5734C154.361 46.4594 154.277 46.1241 154.094 45.8929C153.728 45.4273 153.001 45.4371 152.445 45.6585C152.203 45.773 151.955 45.8751 151.703 45.9645C151.576 46.0086 151.442 46.0262 151.309 46.0164C151.175 46.0066 151.045 45.9695 150.926 45.9075C150.817 45.8392 150.73 45.7447 150.618 45.6764C150.245 45.455 149.757 45.6764 149.434 45.9613C149.111 46.2462 148.852 46.6288 148.445 46.8029C148.262 46.8843 148.036 46.9332 147.95 47.109C147.908 47.2047 147.889 47.3092 147.897 47.4134C147.897 48.0467 147.973 48.6898 147.84 49.3101C147.754 49.7089 147.47 50.1615 147.06 50.1127C147.008 50.1052 146.958 50.0927 146.91 50.0752C146.786 49.4232 146.802 48.7529 146.955 48.1071C147.109 47.4613 147.397 46.8543 147.802 46.3248C148.206 45.7952 148.719 45.3548 149.305 45.0318C149.892 44.7087 150.541 44.51 151.21 44.4484C151.879 44.3867 152.553 44.4636 153.19 44.6739C153.828 44.8843 154.413 45.2235 154.91 45.67C155.407 46.1165 155.804 46.6604 156.076 47.267C156.348 47.8736 156.489 48.5295 156.49 49.1929L156.486 49.1961Z" fill="black"/>
<path d="M146.693 49.8049C146.817 49.8326 146.934 49.896 147.061 49.9123C147.472 49.9612 147.755 49.5086 147.841 49.1097C147.975 48.4894 147.905 47.8464 147.9 47.2131C147.891 47.109 147.909 47.0043 147.951 46.9087C148.045 46.7328 148.271 46.684 148.446 46.6026C148.845 46.4268 149.106 46.0523 149.435 45.7609C149.765 45.4695 150.245 45.2546 150.618 45.476C150.728 45.5411 150.817 45.6388 150.926 45.7072C151.045 45.7683 151.175 45.8049 151.309 45.8146C151.443 45.8244 151.577 45.8073 151.704 45.7642C151.96 45.6893 152.199 45.5574 152.445 45.4581C152.995 45.2367 153.724 45.2286 154.093 45.6909C154.276 45.9237 154.361 46.2575 154.634 46.3714C154.735 46.4137 154.849 46.4186 154.953 46.4561C155.3 46.5847 155.389 47.0291 155.375 47.3954C155.36 47.7617 155.31 48.1736 155.539 48.4569C155.731 48.6881 156.094 48.8085 156.135 49.1081C156.161 49.3002 156.033 49.4793 156.011 49.6714C156.006 49.7428 156.016 49.8144 156.039 49.8822C156.062 49.9499 156.099 50.0124 156.147 50.066C156.195 50.1196 156.253 50.1633 156.319 50.1945C156.384 50.2257 156.455 50.2438 156.527 50.2477C156.956 50.2477 157.221 49.7739 157.622 49.6225C157.787 49.559 157.986 49.5493 158.117 49.4207C158.165 49.3588 158.199 49.2874 158.217 49.2112C158.235 49.135 158.235 49.0559 158.219 48.9795C158.138 48.356 157.632 47.8138 157.686 47.1887C157.737 46.5896 158.3 46.067 158.181 45.4776C158.121 45.2603 158.007 45.0608 157.851 44.8964C157.674 44.6599 157.444 44.4676 157.178 44.3348C156.949 44.2371 156.684 44.2143 156.474 44.0955C155.851 43.7585 155.853 42.8793 155.485 42.2802C155.327 42.0326 155.103 41.8327 154.838 41.7023C154.573 41.572 154.277 41.5162 153.981 41.5411C153.518 41.5867 153.098 41.8293 152.639 41.9107C152.011 42.0214 151.374 41.8179 150.779 41.5851C150.184 41.3523 149.582 41.0967 148.944 41.0967C148.306 41.0967 147.615 41.4223 147.421 42.0181C147.318 42.3437 147.369 42.6921 147.29 43.0194C147.152 43.6005 146.631 44.0141 146.106 44.3022C145.745 44.5008 145.312 44.7288 145.269 45.1341C145.241 45.3914 145.384 45.6225 145.475 45.8716C145.629 46.293 145.626 46.755 145.465 47.174C145.345 47.4817 145.143 47.752 145.021 48.058C144.935 48.2657 144.894 48.4893 144.901 48.7138C144.909 48.9383 144.964 49.1587 145.064 49.3604C145.141 49.5075 145.248 49.6375 145.377 49.7425C145.507 49.8475 145.657 49.9252 145.818 49.9709C146.143 50.0474 146.347 49.73 146.693 49.8049Z" fill="#3F3D56"/>
<g opacity="0.1">
<path opacity="0.1" d="M147.841 48.7547C147.755 49.1536 147.47 49.6062 147.059 49.5573C146.932 49.5411 146.817 49.4776 146.692 49.4499C146.347 49.375 146.143 49.6941 145.818 49.6127C145.657 49.567 145.506 49.4893 145.377 49.3843C145.247 49.2794 145.14 49.1493 145.063 49.0022C144.976 48.8365 144.924 48.6556 144.909 48.4698C144.876 48.7581 144.93 49.0495 145.063 49.3083C145.14 49.4554 145.247 49.5854 145.377 49.6904C145.506 49.7954 145.657 49.8731 145.818 49.9188C146.148 49.9936 146.347 49.6746 146.692 49.756C146.812 49.7974 146.935 49.8327 147.059 49.8618C147.47 49.9122 147.755 49.4597 147.841 49.0608C147.909 48.7084 147.935 48.3496 147.92 47.9912C147.919 48.2476 147.892 48.5033 147.841 48.7547Z" fill="black"/>
<path opacity="0.1" d="M145.583 46.3027C145.604 46.036 145.567 45.7678 145.474 45.5164C145.4 45.3492 145.336 45.1774 145.285 45.002C145.278 45.0293 145.272 45.057 145.268 45.085C145.24 45.3406 145.385 45.5734 145.474 45.8225C145.532 45.9771 145.568 46.1386 145.583 46.3027Z" fill="black"/>
<path opacity="0.1" d="M158.179 45.4453C158.102 45.9077 157.723 46.3423 157.685 46.8291C157.675 46.9124 157.675 46.9965 157.685 47.0798C157.767 46.5116 158.277 46.0086 158.179 45.4453Z" fill="black"/>
<path opacity="0.1" d="M158.208 48.8799C158.194 48.948 158.161 49.011 158.114 49.0622C157.992 49.1908 157.784 49.2006 157.619 49.2641C157.218 49.4155 156.96 49.8941 156.524 49.8892C156.413 49.883 156.306 49.8436 156.218 49.7762C156.129 49.7087 156.064 49.6165 156.03 49.5115C156.02 49.5468 156.012 49.5827 156.007 49.619C156.002 49.6903 156.012 49.7617 156.035 49.8293C156.058 49.8969 156.095 49.9592 156.143 50.0126C156.191 50.066 156.249 50.1095 156.315 50.1406C156.38 50.1717 156.45 50.1897 156.523 50.1937C156.953 50.1937 157.217 49.7199 157.617 49.5702C157.782 49.5067 157.984 49.4969 158.112 49.3683C158.161 49.3065 158.195 49.235 158.212 49.1588C158.23 49.0826 158.231 49.0036 158.214 48.9271C158.213 48.9076 158.209 48.8945 158.208 48.8799Z" fill="black"/>
<path opacity="0.1" d="M156.14 48.7448C156.099 48.4485 155.736 48.328 155.545 48.0936C155.427 47.9396 155.364 47.7522 155.363 47.5596C155.35 47.8624 155.355 48.1717 155.545 48.3996C155.734 48.6275 156.023 48.7252 156.115 48.9597C156.138 48.8905 156.147 48.8173 156.14 48.7448Z" fill="black"/>
<path opacity="0.1" d="M155.372 47.0403C155.386 46.674 155.297 46.2263 154.949 46.101C154.846 46.0635 154.733 46.0586 154.632 46.0179C154.358 45.904 154.273 45.5686 154.091 45.3374C153.724 44.8735 152.996 44.8816 152.442 45.103C152.195 45.2023 151.959 45.3342 151.702 45.4091C151.576 45.4531 151.441 45.4708 151.308 45.461C151.174 45.4512 151.044 45.4141 150.925 45.3521C150.817 45.2837 150.728 45.1893 150.617 45.1209C150.243 44.8995 149.755 45.1209 149.433 45.4058C149.112 45.6907 148.851 46.0717 148.444 46.2475C148.259 46.3289 148.035 46.3777 147.939 46.5536C147.897 46.6494 147.88 46.7539 147.888 46.858C147.888 46.9215 147.888 46.985 147.888 47.0485C147.89 46.9829 147.907 46.9185 147.936 46.8596C148.032 46.6838 148.256 46.635 148.441 46.5536C148.84 46.3777 149.1 46.0033 149.43 45.7119C149.76 45.4205 150.24 45.2056 150.614 45.427C150.724 45.4921 150.813 45.5898 150.922 45.6565C151.04 45.7189 151.171 45.7562 151.304 45.766C151.438 45.7758 151.572 45.7579 151.699 45.7135C151.951 45.6249 152.198 45.5233 152.439 45.4091C152.992 45.1877 153.719 45.1779 154.088 45.6419C154.269 45.8731 154.355 46.2084 154.629 46.3224C154.729 46.3647 154.843 46.3696 154.945 46.407C155.227 46.5112 155.34 46.8238 155.364 47.1331L155.372 47.0403Z" fill="black"/>
</g>
<g opacity="0.1">
<path opacity="0.1" d="M147.252 48.7449C147.261 48.4746 147.359 48.2148 147.531 48.0043C147.703 47.7938 147.94 47.644 148.205 47.5776C148.94 47.4001 149.712 47.4346 150.428 47.6769C151.992 48.1881 150.23 50.0277 150.23 50.0277C150.23 50.0277 149.057 51.1673 147.964 50.3712C147.641 50.1303 147.415 49.7842 147.326 49.3944C147.273 49.1821 147.248 48.9637 147.252 48.7449Z" fill="black"/>
<path opacity="0.1" d="M155.855 48.7446C155.845 48.4742 155.747 48.2141 155.575 48.0036C155.402 47.7931 155.166 47.6435 154.9 47.5773C154.165 47.4002 153.394 47.4347 152.679 47.6766C151.114 48.1878 152.877 50.0275 152.877 50.0275C152.877 50.0275 154.047 51.1671 155.142 50.371C155.465 50.13 155.691 49.784 155.78 49.3942C155.834 49.1818 155.859 48.9634 155.855 48.7446Z" fill="black"/>
<path opacity="0.1" d="M150.133 47.5273V47.6039H152.99V47.5127L150.133 47.5273Z" fill="black"/>
<path opacity="0.1" d="M151.043 48.3428H151.134V48.084C151.134 48.084 151.424 47.8609 151.905 48.084V48.3152H152.07V48.1638H151.989C151.989 48.1638 152.022 47.8496 151.485 47.9C151.485 47.9 151.053 47.8593 151.063 48.1296H150.964L151.043 48.3428Z" fill="black"/>
</g>
<path d="M147.251 48.6395C147.261 48.3693 147.359 48.1094 147.531 47.8989C147.703 47.6884 147.939 47.5387 148.205 47.4722C148.94 47.2959 149.711 47.3304 150.427 47.5715C151.992 48.0843 150.229 49.9224 150.229 49.9224C150.229 49.9224 149.057 51.062 147.964 50.2659C147.64 50.0255 147.414 49.6792 147.326 49.2891C147.272 49.0767 147.247 48.8583 147.251 48.6395Z" fill="white" fill-opacity="0.5"/>
<path d="M155.855 48.6395C155.845 48.3691 155.747 48.109 155.575 47.8985C155.403 47.688 155.166 47.5384 154.9 47.4722C154.166 47.2959 153.395 47.3304 152.679 47.5716C151.115 48.0844 152.877 49.9224 152.877 49.9224C152.877 49.9224 154.048 51.062 155.143 50.2659C155.466 50.0255 155.692 49.6792 155.781 49.2891C155.835 49.0768 155.859 48.8583 155.855 48.6395Z" fill="white" fill-opacity="0.5"/>
<path d="M150.132 47.4248V47.5029H152.99V47.4102L150.132 47.4248Z" fill="white" fill-opacity="0.5"/>
<path d="M151.044 48.24H151.135V47.9811C151.135 47.9811 151.425 47.7597 151.907 47.9811V48.2139H152.072V48.0609H151.991C151.991 48.0609 152.024 47.7483 151.486 47.7972C151.486 47.7972 151.054 47.7581 151.064 48.0267H150.965L151.044 48.24Z" fill="white" fill-opacity="0.5"/>
<path d="M20.3081 74.5049H19.3716V95.327H20.3081V74.5049Z" fill="#535461"/>
<path d="M26.1944 95.2634L26.1351 96.2011L26.0526 97.5247L26.018 98.0766L25.9355 99.4017L25.8993 99.9536L25.8168 101.277L24.872 116.331C24.8317 116.979 24.5427 117.588 24.0638 118.032C23.5849 118.477 22.9523 118.724 22.2949 118.725H17.3845C16.7273 118.724 16.0948 118.477 15.6162 118.032C15.1376 117.587 14.8489 116.979 14.809 116.331L13.8593 101.277L13.7768 99.9536L13.7422 99.4017L13.6614 98.0733L13.6268 97.5214L13.5443 96.1978L13.485 95.2601C13.4737 95.0801 13.4999 94.8998 13.5619 94.7302C13.624 94.5606 13.7205 94.4054 13.8457 94.274C13.9708 94.1427 14.1219 94.0381 14.2895 93.9666C14.4572 93.8951 14.6379 93.8583 14.8205 93.8584H24.8605C25.0433 93.8582 25.2243 93.8951 25.3921 93.9668C25.5599 94.0385 25.711 94.1435 25.8361 94.2752C25.9611 94.4069 26.0575 94.5626 26.1191 94.7326C26.1808 94.9026 26.2064 95.0832 26.1944 95.2634Z" fill="#3F3D56"/>
<path d="M26.1354 96.2012L26.0529 97.5247H13.6254L13.543 96.2012H26.1354Z" fill="#9D9CB5"/>
<path d="M26.0179 98.0771L25.9355 99.4023H13.7438L13.6597 98.0771H26.0179Z" fill="#9D9CB5"/>
<path d="M25.8991 99.9541L25.8167 101.278H13.8624L13.7783 99.9541H25.8991Z" fill="#9D9CB5"/>
<path d="M12.1134 82.3093C17.5678 86.2051 19.84 92.3003 19.84 92.3003C19.84 92.3003 13.2659 92.0773 7.80324 88.1815C2.34055 84.2857 0.0766602 78.1904 0.0766602 78.1904C0.0766602 78.1904 6.65728 78.4135 12.1134 82.3093Z" fill="#E00909"/>
<path d="M0.0834961 78.1904C0.0834961 78.1904 6.9065 81.9348 9.09454 85.028C11.2826 88.1213 19.8386 92.302 19.8386 92.302" stroke="#535461" stroke-width="2" stroke-miterlimit="10"/>
<path d="M15.6329 74.4673C18.6009 76.5837 19.8392 79.9049 19.8392 79.9049C19.8392 79.9049 16.2611 79.7844 13.2915 77.6631C10.3219 75.5418 9.08691 72.2256 9.08691 72.2256C9.08691 72.2256 12.665 72.3379 15.6329 74.4673Z" fill="#6C63FF"/>
<path d="M9.08691 72.2178C9.08691 72.2178 12.8002 74.2528 13.9906 75.9378C15.1811 77.6227 19.8392 79.8971 19.8392 79.8971" stroke="#535461" stroke-width="2" stroke-miterlimit="10"/>
<path d="M24.155 79.7294C20.7435 83.4298 20.0229 88.265 20.0229 88.265C20.0229 88.265 24.831 87.101 28.2409 83.4005C31.6507 79.7001 32.3729 74.8633 32.3729 74.8633C32.3729 74.8633 27.5649 76.0273 24.155 79.7294Z" fill="#C4C4C4"/>
<path d="M32.3729 74.8633C32.3729 74.8633 27.9309 78.6565 26.8014 81.2711C25.672 83.8857 20.0229 88.2715 20.0229 88.2715" stroke="#535461" stroke-width="2" stroke-miterlimit="10"/>
</g>
<defs>
<linearGradient id="paint0_linear" x1="97.5013" y1="105.257" x2="97.5013" y2="17.6162" gradientUnits="userSpaceOnUse">
<stop stop-color="#808080" stop-opacity="0.25"/>
<stop offset="0.54" stop-color="#808080" stop-opacity="0.12"/>
<stop offset="1" stop-color="#808080" stop-opacity="0.1"/>
</linearGradient>
<linearGradient id="paint1_linear" x1="30344.7" y1="78703.1" x2="30344.7" y2="26666.4" gradientUnits="userSpaceOnUse">
<stop stop-color="#808080" stop-opacity="0.25"/>
<stop offset="0.54" stop-color="#808080" stop-opacity="0.12"/>
<stop offset="1" stop-color="#808080" stop-opacity="0.1"/>
</linearGradient>
<clipPath id="clip0">
<rect width="188.889" height="133.482" fill="white" transform="translate(0.00390625 0.0742188)"/>
</clipPath>
</defs>
</svg>
