<svg width="100" height="100" viewBox="0 0 100 100" fill="none" xmlns="http://www.w3.org/2000/svg">
<path d="M56.1104 47.2656L59.2095 38.2369L50.7805 32.2952L42.3516 38.2369L45.4506 47.2656H56.1104Z" fill="black" fill-opacity="0.6"/>
<path d="M79.901 25.093C79.1426 27.8488 78.3202 30.8395 77.793 32.7537C79.2571 33.7631 81.4543 35.2783 83.56 36.7317C83.0679 32.5675 81.7992 28.6384 79.901 25.093Z" fill="black" fill-opacity="0.6"/>
<path d="M76.0457 61.8401C73.2793 62.0789 70.2512 62.3406 68.3088 62.5084C67.8159 64.3326 67.0583 67.1379 66.3633 69.7159C70.0712 67.7216 73.3556 65.0391 76.0457 61.8401Z" fill="black" fill-opacity="0.6"/>
<path d="M83.6245 43.9018C80.6475 41.8411 75.96 38.6093 73.8466 37.1528L64.9584 39.534L61.5 49.6093L67.3037 56.7138C70.3097 56.4544 76.9442 55.8815 80.189 55.6015C82.017 52.0271 83.211 48.0774 83.6245 43.9018Z" fill="black" fill-opacity="0.6"/>
<path d="M53.7109 27.1918L63.2614 33.9233L72.0398 31.5711C72.8729 28.543 74.6529 22.0763 75.544 18.8262C72.5578 15.438 68.8896 12.6662 64.7553 10.7261L53.7109 18.5111V27.1918Z" fill="black" fill-opacity="0.6"/>
<path d="M42.0617 72.4617C44.8411 73.2231 47.7647 73.6328 50.7821 73.6328C53.8209 73.6328 56.7651 73.2178 59.5612 72.4457C60.4089 69.2917 62.0461 63.2301 62.7961 60.4538L56.8086 53.125H44.7328L38.7734 60.276C39.5387 63.1096 41.2164 69.3214 42.0617 72.4617Z" fill="black" fill-opacity="0.6"/>
<path d="M25.3398 61.6294C28.0773 64.9398 31.4479 67.707 35.2626 69.7486C34.5485 67.1012 33.7612 64.1875 33.2553 62.313C31.2732 62.1413 28.1597 61.8728 25.3398 61.6294Z" fill="black" fill-opacity="0.6"/>
<path d="M34.2733 56.5201L40.0511 49.5865L36.5965 39.5226L28.076 37.172C25.8345 38.7177 20.7861 42.2005 17.9609 44.1552C18.3882 48.1583 19.5349 51.9494 21.2683 55.3979C24.5298 55.6786 31.2552 56.2592 34.2733 56.5201Z" fill="black" fill-opacity="0.6"/>
<path d="M38.3091 33.9164L47.8496 27.1918V18.5111L36.8053 10.7261C32.809 12.6014 29.2469 15.2534 26.3164 18.4882C27.2014 21.7109 29.0683 28.5026 29.9205 31.6032L38.3091 33.9164Z" fill="black" fill-opacity="0.6"/>
<path d="M21.9238 24.6147C19.8341 28.3661 18.4547 32.5646 17.9688 37.0278C20.1828 35.4996 22.5914 33.8372 24.1615 32.7545C23.6053 30.7335 22.7188 27.5086 21.9238 24.6147Z" fill="black" fill-opacity="0.6"/>
<path d="M57.8944 8.39233C55.6018 7.88651 53.2214 7.61719 50.7792 7.61719C48.3371 7.61719 45.9567 7.88651 43.6641 8.39233L50.7792 13.4079L57.8944 8.39233Z" fill="black" fill-opacity="0.6"/>
<path d="M76.828 69.4481C69.931 75.6867 60.7925 79.4922 50.7812 79.4922C50.5203 79.4922 50.2602 79.4876 50 79.4823V79.4922H0V92.3828H100L76.828 69.4481Z" fill="black" fill-opacity="0.6"/>
</svg>
