<svg width="40" height="40" viewBox="0 0 40 40" fill="none" xmlns="http://www.w3.org/2000/svg">
<path d="M24.187 27.4589H15.7775C8.86704 27.4589 3.23633 33.0896 3.23633 40H36.7647C36.7281 33.1261 31.0974 27.4589 24.187 27.4589Z" fill="black"/>
<path d="M21.4804 21.7185C22.1385 21.7185 22.7601 21.9379 23.2354 22.3401H26.2702C27.7692 20.7679 28.6833 18.6838 28.6833 16.3437C28.6833 11.5174 24.7711 7.64172 19.9813 7.64172C15.1915 7.64172 11.2793 11.5174 11.2793 16.3437C11.2793 19.5978 13.0709 22.4498 15.74 23.9489C16.0325 22.6691 17.166 21.7185 18.4822 21.7185H21.4804Z" fill="black"/>
<path d="M7.11141 17.075C7.2211 17.989 7.65986 18.83 8.28143 19.4516C8.75675 19.9269 9.37832 20.2925 10.073 20.5119C10.0365 20.3656 10.0365 20.2194 10.0365 20.1097V13.0165C10.0365 12.8702 10.0365 12.7239 10.073 12.5777C9.37832 12.7605 8.79331 13.1261 8.28143 13.638C8.24487 13.6746 8.17174 13.7477 8.13518 13.7843V13.4918C8.13518 12.7971 8.2083 12.1024 8.31799 11.4442C8.42768 10.7495 8.6105 10.0914 8.86644 9.46984C9.08582 8.8117 9.37832 8.19013 9.74395 7.60512C10.073 7.02011 10.4752 6.4351 10.914 5.92322C10.9505 5.88665 10.9871 5.81353 10.9871 5.77697C11.3162 5.81353 11.6452 5.70384 11.8646 5.48446C14.095 3.25411 17.02 2.15722 19.9085 2.15722C22.797 2.15722 25.7586 3.25411 27.9524 5.48446C28.2083 5.7404 28.5374 5.81353 28.8299 5.77697C28.8664 5.81353 28.8664 5.88665 28.903 5.92322C29.3418 6.4351 29.744 7.02011 30.073 7.60512C30.4021 8.19013 30.6946 8.8117 30.9505 9.46984C31.1699 10.128 31.3527 10.7861 31.499 11.4808C31.6087 12.1389 31.6818 12.8336 31.6818 13.5283V13.8208C31.6452 13.7477 31.5721 13.7112 31.5355 13.6746C31.0602 13.1993 30.4387 12.8336 29.744 12.6143C29.7805 12.7605 29.7805 12.9068 29.7805 13.053V20.1097C29.7805 20.2559 29.7805 20.4022 29.744 20.5119C29.9268 20.4753 30.1096 20.4022 30.2924 20.3291V22.6325C30.2924 22.8885 30.2558 23.1444 30.2193 23.3272C30.1827 23.5101 30.1096 23.6197 30.0365 23.7294C29.9633 23.8026 29.8536 23.8757 29.744 23.9122C29.5977 23.9488 29.4514 23.9854 29.2686 23.9854H29.2321H22.5045C22.2851 23.6197 21.9195 23.3638 21.4441 23.3638H18.446C17.7878 23.3638 17.2759 23.9122 17.2759 24.5338C17.3125 25.192 17.8244 25.7038 18.4825 25.7038H21.4807C21.9195 25.7038 22.3216 25.4479 22.541 25.0823H29.3418H29.5977C29.8536 25.0823 30.073 25.0091 30.2924 24.936C30.5849 24.8263 30.8043 24.6801 31.0237 24.4607C31.2065 24.2413 31.3527 23.9854 31.4624 23.6563C31.5355 23.3638 31.6087 22.9982 31.6087 22.596V19.6709V19.5612C31.6452 19.5247 31.6818 19.4881 31.7184 19.4516C32.3399 18.83 32.7787 17.989 32.8884 17.075C32.9249 17.0384 32.9615 17.0384 32.9615 17.0018C33.0712 16.8921 33.1443 16.7093 33.1443 16.5631V13.5283C33.1443 12.7605 33.0712 11.9927 32.9615 11.2614C32.7421 10.4936 32.5593 9.76234 32.3034 9.03108C32.0474 8.29982 31.7184 7.60512 31.3162 6.94698C30.9505 6.28885 30.5118 5.66728 29.9999 5.08227C29.9633 5.00914 29.8902 4.97258 29.8171 4.93601C29.8902 4.60695 29.7805 4.20475 29.5246 3.94881C26.892 1.31627 23.4551 0 19.9816 0C16.5081 0 13.0712 1.31627 10.4021 3.94881C10.1461 4.20475 10.0365 4.60695 10.1096 4.93601C10.0365 4.97258 9.99989 5.00914 9.92677 5.08227C9.41488 5.66728 8.97613 6.28885 8.6105 6.94698C8.24487 7.60512 7.9158 8.29982 7.62329 9.03108C7.36735 9.76234 7.14797 10.4936 7.03828 11.2614C6.89203 11.9927 6.85547 12.7605 6.85547 13.5283V16.5631C6.85547 16.7459 6.92859 16.8921 7.03828 17.0018C7.07485 17.0384 7.11141 17.0384 7.11141 17.075Z" fill="black"/>
</svg>
